<?xml version="1.0" encoding="UTF-8"?>
<!-- Generator: Adobe Illustrator 23.0.3, SVG Export Plug-In . SVG Version: 6.00 Build 0)  -->
<svg version="1.1" id="Layer_1" xmlns="http://www.w3.org/2000/svg" xmlns:xlink="http://www.w3.org/1999/xlink" x="0px" y="0px" viewBox="0 0 1000 1000" style="enable-background:new 0 0 1000 1000;" xml:space="preserve">
<style type="text/css">
	.st0{fill:#FFD882;}
	.st1{fill:none;stroke:#280505;stroke-width:17;stroke-linecap:round;stroke-linejoin:round;stroke-miterlimit:10;}
	.st2{fill:#280505;}
	.st3{fill:none;stroke:#280505;stroke-width:14.8293;stroke-linecap:round;stroke-linejoin:round;stroke-miterlimit:10;}
	.st4{fill:none;stroke:#280505;stroke-width:17.1108;stroke-linecap:round;stroke-linejoin:round;stroke-miterlimit:10;}
	.st5{fill:#B3B3B3;}
	.st6{fill:none;stroke:#280505;stroke-width:6.8443;stroke-linecap:round;stroke-linejoin:round;stroke-miterlimit:10;}
	.st7{fill:#66B0FF;}
	.st8{opacity:0.29;fill:#280505;}
	.st9{fill:#ADF888;}
	.st10{opacity:0.41;fill:#FFFFFF;}
	.st11{opacity:0.29;fill:#1A1A1A;}
	.st12{fill:none;stroke:#280505;stroke-width:7.985;stroke-linecap:round;stroke-linejoin:round;stroke-miterlimit:10;}
	.st13{fill:#1A1A1A;}
	.st14{fill:none;stroke:#280505;stroke-width:2.2814;stroke-linecap:round;stroke-linejoin:round;stroke-miterlimit:10;}
	.st15{fill:#E6E6E6;}
	.st16{fill:#808080;}
	.st17{fill:#B34041;}
	.st18{opacity:0.5;fill:#FFFFFF;}
	.st19{fill:none;stroke:#280505;stroke-width:8.679;stroke-linecap:round;stroke-linejoin:round;stroke-miterlimit:10;}
	.st20{fill:#D26651;}
	.st21{fill:#FFFFFF;}
	.st22{fill:none;stroke:#280505;stroke-width:7.6218;stroke-linecap:round;stroke-linejoin:round;stroke-miterlimit:10;}
	.st23{fill:none;stroke:#280505;stroke-width:8.1096;stroke-linecap:round;stroke-linejoin:round;stroke-miterlimit:10;}
	.st24{fill:none;stroke:#280505;stroke-width:7.1111;stroke-linecap:round;stroke-linejoin:round;stroke-miterlimit:10;}
	.st25{fill:#FF4442;}
	.st26{fill:none;stroke:#280505;stroke-width:7.8248;stroke-linecap:round;stroke-linejoin:round;stroke-miterlimit:10;}
	.st27{fill:none;stroke:#280505;stroke-width:6;stroke-linecap:round;stroke-linejoin:round;stroke-miterlimit:10;}
	.st28{opacity:0.83;fill:#FFFFFF;}
	.st29{fill:none;stroke:#1A1A1A;stroke-linecap:round;stroke-linejoin:round;stroke-miterlimit:10;}
</style>
<circle class="st0" cx="496.05" cy="505" r="319.89"/>
<g>
	<path class="st1" d="M491.33,600.44c-3.45,0.85-6.35,3.27-8.46,6.12c-3.38,4.56-4.84,10.13-8.04,14.77   c-1.02,1.48-2.04,3.16-11.59,12.48c-3.94,3.84-9.23,8.91-15.65,14.81c4.66,1.45,13.74,5,21.76,13.55   c11.89,12.66,13.32,27.61,13.58,32.1"/>
	<path class="st1" d="M655.18,669.97c2.43,10.74,8.43,40.09,4.23,61.97c-1.74,9.03-4.57,14.13-8.95,16.36   c-3.95,2.02-8.66,1.57-13.06,1.01c-28.2-3.56-56.12-9.36-83.4-17.35c-1.33-0.39-5.56-1.45-11.18-3.19c-4.5-1.4-8.14-2.66-10.49-3.5   c-0.94,0.51-2.28,1.15-3.97,1.64c-0.61,0.18-5.28,1.49-10.4,0.27c-12.39-2.94-17.11-18.18-17.12-19.08c0-0.05,0.01-0.41-0.2-0.76   c-0.18-0.31-0.51-0.49-0.82-0.66c-3.48-1.91-6.65-4.4-9.33-7.34c-0.26,1.58-0.6,3.58-1.03,5.88c-0.57,3.07-0.83,4.18-1.76,5.35   c-1.1,1.39-2.42,1.96-2.72,2.08c-0.36,0.15-2.44,0.96-4.72,0.11c-2.22-0.83-3.83-2.93-4.22-5.44c-2.06,0.52-4.35,0.06-6.04-1.22   c-1.7-1.28-2.77-3.35-2.83-5.48c-0.21,0.11-2.79,1.37-5.31-0.03c-0.15-0.08-2.19-1.26-2.67-3.59c-0.24-1.14-0.01-2.07,0.33-3.19   c0.94-3.17,1.62-4.66,2.55-6.82c1.83-4.25,4.52-8.31,8.7-10.54c2.98-1.6,6.43-2.11,9.81-2.08c9.57,0.09,18.59,4.31,26.89,9.08   c8.29,4.77,16.32,10.23,25.42,13.2c16.13,5.28,25.34,2.56,46.91,2.61c11.91,0.03,28.94,1.23,49.77,6.79"/>
	<path class="st1" d="M598.57,545.47c12.31,4.04,14.92,9.81,15.64,12.35c0.93,3.24,0.08,5.74-1.53,13.18   c-1.66,7.65-2.73,14.05-3.42,18.63"/>
	<path class="st1" d="M504.09,557.45l-29.62,18.89c6.84,7.19,14.22,15.9,21.45,26.28c10.04,14.42,17.08,28.19,22.06,39.83   c3.74-6.87,7.46-14.22,11.07-22.04c6.36-13.78,11.42-26.94,15.47-39.15c8.73-0.94,20.44-3.1,33.47-8.21   c12.18-4.78,21.7-10.66,28.54-15.61"/>
	<path class="st1" d="M593.67,565.64c0.57-4.41,1.5-9.43,2.99-14.86c1.63-5.95,3.6-11.14,5.54-15.5"/>
	<path class="st1" d="M589.36,585.79c5.45,0.16,13.72,1.21,21.67,6.16c8.29,5.16,8.12,9.52,23.41,32.44   c9.2,13.8,13.38,18.39,18.48,29.98c2.55,5.8,4.2,10.79,5.22,14.19"/>
	<path class="st1" d="M461.7,655.54c-4.83,3.63-10.13,8.1-15.51,13.57c-4.04,4.1-7.51,8.13-10.47,11.91   c-3.98-0.43-9.97-0.91-17.25-0.82c-11.08,0.14-14.37,1.46-24.9,2.25c-10.51,0.79-22.47,4.84-33.57-1.35   c-7.12-3.97-14.61-8.04-22.75-8.19c-12.72-0.23-23.44,8.97-35.42,13.26c-2.39,0.86-4.9,1.54-6.96,3.03   c-0.99,0.71-3.78,3.4-3.08,6.51c0.53,2.36,2.93,4.21,5.95,4.61c0.08,0.32,0.69,2.59,2.98,3.7c2.63,1.27,5.12-0.14,5.31-0.26   c1.64,0.99,4.46,2.33,7.58,1.7c2.24-0.45,3.51-1.69,6.41-4.11c1.95-1.63,4.9-4,8.73-6.78c2.61,0.06,6.24,0.16,10.57,0.31   c10.94,0.37,13.51,0.63,13.86,1.85c0.47,1.66-3.45,4.35-5.44,5.44c-2.39,1.32-2.84,0.82-5.02,1.97c-4.22,2.23-6.99,6.47-6.51,9.13   c0.12,0.68,0.4,1.37,0.97,1.76c0.81,0.56,1.83,0.4,2.25,0.33c10.44-1.9,11.59-2.41,11.59-2.41c7.12-3.12,10.68-4.69,15.09-4.76   c26.51-0.43,40.63,4.54,71.69,2.36c6.98-0.49,12.88-1.46,17.33-2.37"/>
	<path class="st1" d="M447.11,648.87c0.46,4.66,2.07,9.19,4.66,13.09"/>
	<path class="st1" d="M562.81,748.36c5.45,1.05,12.68,1.91,21.15,1.44c9.29-0.52,16.97-2.45,22.53-4.31"/>
</g>
<g>
	<circle class="st1" cx="772.64" cy="377.4" r="41.96"/>
	<path class="st1" d="M492.68,306.79c1.16-5.73,3.51-14.04,8.76-22.72c9.34-15.46,16.49-13.29,30.24-30.53   c10.17-12.75,11.12-20.04,23.87-30.52c5.22-4.29,9.74-6.92,11.35-7.83c15.93-8.99,25.88-6.93,41.74-11.8   c18.98-5.83,15.5-10.58,31.59-16.74c17.1-6.55,36.32-1.83,53.65,4.1c10.68,3.65,21.35,7.83,30.42,14.56   c11.03,8.19,17.19,16.9,21.61,23.23c12.21,17.52,16.78,33.77,20.28,46.64c5.81,21.39,6.41,38.54,6.7,48.65   c0.14,4.99,0.12,9.99-0.06,14.98c-0.07,1.85,0.36,4.93-0.34,6.63c-0.64,1.55-3.05,2.09-4.56,2.07c-0.69-0.01-1.4-0.11-1.99-0.47   c-1.16-0.7-1.59-2.16-1.76-3.43c-0.19-1.36-0.54-2.42-1.1-3.72c-5.94-13.95-9.75-22.9-19.19-28.57c-2.07-1.24-12.68-7.6-22.89-3.9   c-8.94,3.24-14.41,11.96-19.39,27.34c-2.55,7.88-4.57,18.25-9.85,24.87c-5.79,7.26-16.67,12.61-24.19,18.04   c-4.42,3.19-6.65,4.87-8.41,7.37c-4.65,6.61-4.02,13.35-4.54,21.8c-0.39,6.32-1.53,15.38-5.03,26.44"/>
	<path class="st1" d="M472.2,358.41c-5.31,5.21-28.41,28.95-25.43,60.52c0.63,6.68,2.33,12.63,4.43,17.74   c-1.77,0.81-19.06,9.09-22.04,27c-2.05,12.28,3.79,22.18,5.48,25.04c3.09,5.24,6.01,7.45,16.06,16.03   c14.63,12.49,22.01,18.65,25.54,22.45c6.4,6.88,17.59,20.43,26.87,26.64c2.18,1.46,4.21,2.48,4.5,2.63   c6.1,3.05,11.43,3.77,14.02,4.12c16.07,2.17,32.35-4.17,32.35-4.17c11.81-4.6,19.85-11.52,24.46-16.24   c9.6-2.17,17.44-4.74,23.15-6.85c22.03-8.15,28.23-15.33,30.46-18.19c2.16-2.78,3.57-5.36,4.43-7.11"/>
	<g>
		<path class="st2" d="M628.41,432.37c0.3-3.94,1.08-7.78,2.08-11.58c1.01-3.79,2.29-7.51,3.83-11.14    c3.04-7.27,7.07-14.15,11.86-20.48c4.8-6.33,10.18-12.2,16.04-17.65c5.92-5.43,12.13-10.22,18.68-14.57    c6.55-4.35,13.35-8.33,20.79-11.7c3.75-1.67,7.66-3.17,12.13-4.25c2.24-0.54,4.67-0.95,7.53-1.01l1.08-0.01l1.18,0.08    c0.4,0.03,0.78,0.06,1.19,0.11l1.32,0.24c1.71,0.32,3.78,1.07,5.75,2.31c0.49,0.33,0.99,0.73,1.46,1.12    c0.47,0.4,0.96,0.81,1.29,1.23c0.37,0.42,0.73,0.86,1.07,1.3c0.19,0.24,0.31,0.42,0.44,0.61l0.37,0.57    c0.97,1.54,1.77,3.3,2.22,5.07c0.47,1.76,0.66,3.49,0.68,5.08c0,1.57-0.14,3.03-0.36,4.36c-0.45,2.65-1.16,4.87-1.88,6.94    c-0.73,2.06-1.52,3.94-2.3,5.76c-1.58,3.62-3.16,6.98-4.67,10.32c-1.51,3.32-2.92,6.61-4.25,9.9c-2.79,6.86-5.2,13.33-6.95,20.07    c-0.89,3.36-1.63,6.75-2.22,10.17c-0.59,3.44-1,6.78-1.3,10.37c-0.16,1.8-0.29,3.69-0.5,5.73c-0.2,2.03-0.51,4.2-0.94,6.32    c-0.86,4.28-2.07,8.24-3.55,12.12c-1.48,3.88-3.24,7.64-5.26,11.24c-2,3.61-4.33,7.06-6.63,10.22    c-4.73,6.43-9.86,12.39-15.72,17.96c-5.85,5.54-12.46,10.63-20.59,14.38c-4.05,1.87-8.8,2.97-13.7,2.8    c-4.88-0.09-9.86-1.48-13.99-3.97c-2.05-1.22-3.86-2.67-5.47-4.23c-1.63-1.54-3.01-3.24-4.23-4.97c-1.26-1.72-2.26-3.56-3.19-5.38    c-0.46-0.91-0.86-1.85-1.28-2.76c-0.38-0.93-0.72-1.88-1.07-2.81c-0.63-1.67,0.21-3.53,1.87-4.16c1.31-0.5,2.75-0.08,3.6,0.93    l0.15,0.18l1.72,2.04c0.6,0.65,1.16,1.31,1.76,1.93c1.22,1.22,2.45,2.39,3.73,3.4c2.55,2.06,5.28,3.57,7.91,4.36    c1.31,0.41,2.57,0.55,3.88,0.6c0.64,0.06,1.3-0.04,1.92-0.02c0.65-0.12,1.28-0.13,1.92-0.3c0.64-0.14,1.27-0.28,1.92-0.49    c0.64-0.16,1.29-0.4,1.94-0.62c0.65-0.17,1.31-0.51,1.98-0.7l2.03-0.81c2.74-1.18,5.48-2.84,8.11-4.78    c2.64-1.94,5.2-4.15,7.66-6.54c4.91-4.76,9.49-10.19,13.52-15.83c2.05-2.89,3.86-5.66,5.45-8.6c1.59-2.92,2.97-5.94,4.11-9.05    c1.14-3.1,2.07-6.31,2.63-9.36c0.28-1.54,0.48-3.07,0.62-4.75c0.14-1.67,0.25-3.5,0.38-5.42c0.25-3.85,0.68-7.93,1.29-11.85    c0.61-3.94,1.4-7.85,2.35-11.72c1.86-7.73,4.57-15.32,7.28-22.31c2.78-7.29,6.14-14.33,8.91-20.82c0.68-1.61,1.31-3.18,1.81-4.64    c0.5-1.45,0.87-2.82,1.04-3.84c0.09-0.51,0.1-0.91,0.12-1.21c-0.01-0.27-0.04-0.4-0.05-0.45c0-0.05-0.01,0.01-0.02-0.03    c0,0-0.01-0.01-0.01-0.01c0-0.01,0-0.02,0.03,0.04c0.05,0.08,0.11,0.15,0.19,0.21c0.07,0.03,0.17,0.18,0.28,0.28    c0.11,0.1,0.26,0.18,0.37,0.25c0.36,0.3,0.7,0.3,0.57,0.31c-0.02,0-0.04-0.01-0.06-0.03l-0.2,0c-0.07,0-0.14-0.01-0.21-0.03    l-0.32,0.01c-0.87,0.02-2.14,0.17-3.53,0.51c-2.78,0.66-5.88,1.82-8.95,3.14c-6.18,2.7-12.36,6.18-18.27,10    c-5.9,3.85-11.66,8.02-16.85,12.55c-5.18,4.58-10.06,9.61-14.41,15.06c-4.38,5.43-8.62,11.02-12.7,16.86    c-4.16,5.81-8.06,11.87-12.51,18.01l-0.01,0.01c-1.07,1.47-3.12,1.8-4.59,0.74C628.8,434.59,628.33,433.47,628.41,432.37z"/>
	</g>
	<path class="st1" d="M443.29,386.81c-6.32-7.25-13.92-13.39-22.35-18.04c-2.49-1.38-5.3-2.66-8.09-2.08   c-4.19,0.86-6.45,5.48-7.18,9.7c-1.69,9.75,1.4,19.59,2.79,29.39c1.68,11.74,0.92,23.72,2.49,35.48c1.58,11.76,6,23.89,15.53,30.95   "/>
	<path class="st1" d="M684.67,364.15c-4.01-4.84-9.94-11.41-17.89-18.31c-29.06-25.22-60.33-32.94-83-38.29   c-30.32-7.16-51.67-6.36-60.58-5.75c-17.58,1.2-29.62,2.18-40.24,10.68c-19.63,15.71-18.6,44.48-18.28,50.32   c5.91-4.17,14.98-9.6,26.95-13.19c11.13-3.34,22.2-3.17,44.48-2.33c20.62,0.78,51.51,1.95,83.99,19.2   c15.61,8.28,26.75,17.71,33.42,24.02"/>
	<path class="st1" d="M466.33,365.84c-3.26-5.25-10.49-15.22-23.49-22.29c-19.71-10.72-38.93-7.27-44.4-6.08   c8.49-5.25,18.03-8.55,27.9-10.05c13.5-2.06,23.93-0.4,29.87,0.68c23.13,4.21,40.04,15.82,49.47,23.62   c0.22-6.76-0.35-16.49-4.12-27.35c-7.41-21.33-22.49-33.37-28.96-37.95c14.35,4.08,36.31,12.64,56.35,31.56   c6.36,6.01,11.52,12.11,15.69,17.82c2.97-2.67,6.93-6.98,9.85-13.21c6.51-13.91,3.06-27.22,1.85-31.22   c6.37,7.24,19.49,24.37,19.84,47.83c0.07,5-0.44,9.59-1.26,13.69c3.44-2.88,7.78-5.93,13.11-8.57c15.41-7.62,30.15-7.31,37.95-6.52   c-4.23,1.86-13.53,6.66-19.96,17.09c-2.93,4.75-4.42,9.3-5.22,12.78"/>
</g>
<path class="st3" d="M497.05,774.54l71.86-12.94c0.25-3.91,0.5-7.81,0.76-11.72c-48.41-11.04-96.83-22.08-145.24-33.12l-65.51,3.83  l-0.42,12.6C404.68,746.98,450.86,760.76,497.05,774.54z"/>
<g>
	<path class="st4" d="M278.42,773.23c33.25-5.61,66.49-11.22,99.74-16.84c0.36-3.9,0.72-7.8,1.08-11.71   c-30.32-9.91-60.64-19.82-90.96-29.73"/>
	<path class="st4" d="M242.08,357.04c59.06,9.14,118.12,18.28,177.17,27.42c-2.07,92.92-4.15,185.84-6.22,278.76   c-6.1,0.93-12.21,1.85-18.31,2.78c-59.62-17.78-119.25-35.56-178.87-53.34c2.01-83.71,4.01-167.41,6.02-251.12   C228.61,360.04,235.35,358.54,242.08,357.04z"/>
	<path class="st4" d="M261.49,555.51c-18.59,62.51-37.17,125.02-55.76,187.52l72.69,30.19c10.02-69.47,20.04-138.95,30.07-208.42   c1.71-12.48-6.52-24.23-18.57-26.89C277.5,535.18,264.77,542.95,261.49,555.51z"/>
</g>
<path class="st5" d="M364.9,705.91c0.78-4.26,1.49-8.94-0.65-12.71c-1.6-2.82-4.55-4.61-7.54-5.84c-10.08-4.13-21.61-3.16-32.06-0.1  c-9.23,2.7-29.8,9.04-29.75,20.73c0,0.93,0.4,4.55,3.14,7.49c2.7,2.9,6.27,3.56,8.53,3.92c11.64,1.85,22.9,1.01,25.26,0.82  c17.78-1.42,21.85-3.31,25.02-5.64c2.88-2.11,4.81-4.43,5.99-6.06"/>
<path class="st6" d="M297.13,700.02c-1.32,2.46-2.24,5.19-2.23,7.98c0,0.93,0.4,4.55,3.14,7.49c2.7,2.9,6.27,3.56,8.53,3.92  c11.64,1.85,22.9,1.01,25.26,0.82c17.78-1.42,21.85-3.31,25.02-5.64c2.88-2.11,4.81-4.43,5.99-6.06"/>
<path class="st7" d="M469.36,662.17c5.99,6.38,12.45,16.56,12.47,25.64c0.03,10.79-0.38,21.93-0.6,32.82  c-0.03,1.62-0.06,3.3,0.58,4.78c1.2,2.75,4.29,4.05,7.13,5.04c10.16,3.54,20.59,6.3,31.16,8.3c4.94,0.93,10.22,1.19,14.97,2.73  c4.5,1.46,8.8,3.28,13.51,4.36c20.58,4.69,42.39,3.99,62.59-2.18c-0.41,0.13-1.43-30.27-1.22-32.12  c0.82-7.03,3.54-14.49,10.07-17.71c8.5-4.19,17.58-7.4,26.09-11.69c5.55-2.8,11.76-7,11.67-13.21c-0.06-3.88-2.68-7.2-5.17-10.18  c-6.22-7.43-12.48-14.82-18.78-22.18c-4.59-5.36-9.24-10.73-14.77-15.11c-6.19-4.9-13.35-8.42-19.84-12.91  c-8.82-6.1-16.32-13.92-24.77-20.53c-8.45-6.61-18.36-12.13-29.09-12.45c-6.5-0.19-12.91,1.55-19.4,1.93  c-7.62,0.45-16.24-0.68-21.96,4.37c-4.49,3.96-5.33,10.15-8.85,14.74c-3.44,4.49-8.86,5.3-12.29,9.94  c-3.38,4.56-4.84,10.13-8.04,14.77c-1.02,1.48-2.04,3.16-11.59,12.48c-3.94,3.84-9.23,8.91-15.65,14.81  C452.25,650.07,461.33,653.62,469.36,662.17z"/>
<path class="st8" d="M482.94,688.01c-2.12,4.48-1.19,10.47-1.3,15.3c-0.13,5.77-0.29,11.54-0.41,17.31  c-0.03,1.62-0.06,3.3,0.58,4.78c1.2,2.75,4.29,4.05,7.13,5.04c10.16,3.54,20.59,6.3,31.16,8.3c4.94,0.93,10.22,1.19,14.97,2.73  c4.5,1.46,8.8,3.28,13.51,4.36c20.58,4.69,42.39,3.99,62.59-2.18c-0.41,0.13-1.43-30.27-1.22-32.12c0.54-4.69,3.32-8.63,2.77-13.3  c-0.56-4.77-2.89-9.22-5.08-13.42c-0.26-0.5-0.56-1.04-1.07-1.29c-0.48-0.23-1.05-0.15-1.57-0.05c-4.6,0.84-9.66,2.52-13.68,0.13  c-1.47-0.87-2.61-2.2-3.57-3.62c-3.64-5.35-4.95-11.9-6.19-18.25c-1.14-5.85-2.28-11.71-3.42-17.56  c-0.74,11.61-1.48,23.21-2.22,34.82c-0.09,1.36-0.19,2.77-0.8,3.99c-0.69,1.36-1.94,2.33-3.22,3.15c-4.53,2.88-9.82,4.3-15.09,5.33  c-14.74,2.87-30.03,2.95-44.8,0.22C502.37,689.9,492.69,686.92,482.94,688.01z"/>
<path class="st7" d="M504.09,557.45l-29.62,18.89c6.84,7.19,14.22,15.9,21.45,26.28c10.04,14.42,17.08,28.19,22.06,39.83  c3.74-6.87,7.46-14.22,11.07-22.04c4.38-9.48,7.33-19.51,14.21-27.53c4.31-5.02,9.49-9.3,15.24-12.57  c6.12-3.49,12.94-4.68,19.49-7.25c3.26-1.28,6.47-2.7,9.62-4.24c2.49-1.22,6.16-2.2,7.25-4.88c0.57-1.41,1.09-2.86,1.3-4.38  c0.19-1.39,0.13-2.81,0.22-4.21c0.12-1.77,0.5-3.51,0.88-5.24c1.21-5.51,5.65-3.28,9.1-1.25c3.48,2.05,6.71,4.96,7.86,8.96  c0.9,3.14,0.09,5.58-1.53,13.18c-0.85,3.98-1.63,7.98-2.33,11.99c-0.41,2.34-1.76,5.42-0.44,7.68c0.82,1.41,2.61,2.18,3.86,3.18  c2.08,1.67,3.74,3.72,5.22,5.92c5.41,8.03,10.07,16.55,15.45,24.61c9.2,13.8,13.38,18.39,18.48,29.98c2.55,5.8,4.2,10.79,5.22,14.19  "/>
<path class="st9" d="M503.92,539.32c-0.94,18.78-1.89,37.57-2.83,56.35c-0.19,3.86-0.38,7.79,0.59,11.53  c0.87,3.32,2.61,6.34,4.33,9.3c4.41,7.6,8.82,15.19,13.23,22.79c5.93-10.45,11.29-21.24,16.03-32.28c1.1-2.57,1.9-5.66,3.37-8.03  c1.23-1.97,3.05-3.92,4.6-5.66c3.61-4.07,7.9-7.51,12.51-10.37c5.19-3.22,10.81-5.71,16.55-7.76c5.57-1.99,11.41-2.75,16.94-5.14  c2.1-0.91,4.23-2.02,5.55-3.89c1.72-2.42,1.77-5.6,1.95-8.56c0.4-6.83,1.8-13.62,4.33-19.98c1.32-3.31,2.94-6.5,4.14-9.85  c2.21-6.17,2.97-12.76,3.71-19.27c-11.03-0.82-22.2,0.26-32.87,3.19"/>
<path class="st10" d="M658.19,667.11c-6.78-0.01-13.56-0.02-20.34-0.03c1.08-0.23,1.33-1.66,1.24-2.76  c-0.26-3.33-1.43-6.52-2.58-9.66c-7.79-21.25-15.66-42.65-27.49-61.95c10.87,8.73,17.81,20.28,25.41,31.68  c9.2,13.8,13.38,18.39,18.48,29.98c2.55,5.8,4.2,10.79,5.22,14.19"/>
<path class="st8" d="M610.23,590.53c0.22,0.45,0.41,0.9,0.44,1.37c-1.76-0.27-3.18-1.6-4.79-2.17c-2.08-0.73-4.76-0.59-6.91-0.32  c-4.43,0.55-8.66,2.4-12.29,4.97c-5.8,4.1-10.2,9.83-14.48,15.5c-1.93,2.55-3.85,5.12-5.76,7.68c-0.26-9.76,4.53-19.51,12.41-25.28  c1.98-1.45,4.14-2.66,6.28-3.86c1.97-1.1,3.93-2.2,5.9-3.3c1.78-0.99,3.6-2.02,4.89-3.59c1.84-2.23,1.86-5.07,0.37-7.47  c-2.15-3.46-6.44-5.71-10.4-4.78c2.74-2.32,7.43-1.54,8.97-5.33c0.57-1.41,1.08-2.86,1.29-4.37c0.19-1.39,0.13-2.81,0.22-4.21  c0.12-1.77,0.5-3.51,0.88-5.24c1.21-5.51,5.65-3.28,9.1-1.25c3.48,2.05,6.71,4.96,7.86,8.96c0.9,3.14,0.09,5.58-1.53,13.18  c-0.85,3.98-1.63,7.98-2.33,11.99c-0.35,2.02-1.27,3.97-0.76,6.02C609.71,589.55,609.99,590.04,610.23,590.53z"/>
<path class="st9" d="M461.7,655.54c-4.83,3.63-10.13,8.1-15.51,13.57c-4.04,4.1-7.51,8.13-10.47,11.91  c-3.98-0.43-9.97-0.91-17.25-0.82c-11.08,0.14-14.37,1.46-24.9,2.25c-10.51,0.79-22.47,4.84-33.57-1.35  c-7.12-3.97-14.61-8.04-22.75-8.19c-12.72-0.23-23.44,8.97-35.42,13.26c-2.39,0.86-4.9,1.54-6.96,3.03  c-0.99,0.71-3.78,3.4-3.08,6.51c0.53,2.36,2.93,4.21,5.95,4.61c0.08,0.32,0.69,2.59,2.98,3.7c2.63,1.27,5.12-0.14,5.31-0.26  c1.64,0.99,4.46,2.33,7.58,1.7c2.24-0.45,3.51-1.69,6.41-4.11c1.95-1.63,4.9-4,8.73-6.78c2.61,0.06,6.24,0.16,10.57,0.31  c10.94,0.37,13.51,0.63,13.86,1.85c0.47,1.66-3.45,4.35-5.44,5.44c-2.39,1.32-2.84,0.82-5.02,1.97c-4.22,2.23-6.99,6.47-6.51,9.13  c0.12,0.68,0.4,1.37,0.97,1.76c0.81,0.56,1.83,0.4,2.25,0.33c10.44-1.9,11.59-2.41,11.59-2.41c7.12-3.12,10.68-4.69,15.09-4.76  c26.51-0.43,40.63,4.54,71.69,2.36c5.88-0.41,11.85-1.16,17.62-2.31c5.86-1.17,9.17-5.73,12.12-10.61  c2.44-4.03,4.88-8.06,7.33-12.09c1.3-2.14,2.62-4.37,2.88-6.86c0.23-2.3-0.48-4.59-1.39-6.71c-2.4-5.62-6.23-10.63-11.03-14.42"/>
<path class="st11" d="M475.56,673.06c-0.19-0.18-0.39-0.36-0.6-0.56c-1.29-1.19-5.31-4.96-5.63-6.62c1.89,9.66-8.55,18.1-13.24,25.4  c-2.07,3.21-4.05,6.76-7.13,9.13c-3.29,2.54-7.24,2.46-11.24,2.42c-23.13-0.24-46.26-0.9-69.37-1.97c-0.75-0.03-1.5-0.07-2.23,0.07  c-1,0.19-1.9,0.7-2.8,1.19c-4.63,2.54-9.43,4.77-14.36,6.68c-2.91,1.13-6.36,2.09-9,0.43c3.99-5.07,12.17-5.49,15.76-10.85  c0.64-0.96,1.11-2.17,0.72-3.26c-0.49-1.36-2.06-1.94-3.45-2.33c-4.88-1.36-9.85-2.39-14.87-3.07c-5.55-0.75-11.6-0.96-16.29,2.1  c-2.47,1.61-4.33,4-6.68,5.77c-2.36,1.77-5.65,2.87-8.23,1.45c-3.46,4.85,2.77,7.22,6.68,6.43c2.24-0.45,3.51-1.69,6.41-4.11  c1.95-1.63,4.9-4,8.73-6.78c2.61,0.06,6.24,0.16,10.57,0.31c10.94,0.37,13.51,0.63,13.86,1.85c0.47,1.66-3.45,4.35-5.44,5.44  c-2.39,1.32-2.84,0.82-5.02,1.97c-4.22,2.23-6.99,6.47-6.51,9.13c0.12,0.68,0.4,1.37,0.97,1.76c0.81,0.56,1.83,0.4,2.25,0.33  c10.44-1.9,11.59-2.41,11.59-2.41c7.12-3.12,10.68-4.69,15.09-4.76c26.51-0.43,40.63,4.54,71.69,2.36  c5.88-0.41,11.85-1.16,17.62-2.31c5.86-1.17,9.17-5.73,12.12-10.61c2.44-4.03,4.88-8.06,7.33-12.09c1.3-2.14,2.62-4.37,2.88-6.86  C478.04,675.76,477.25,674.65,475.56,673.06z"/>
<g>
	<path class="st2" d="M496.96,626.1c-1.18,8.37-2.7,16.55-4.12,24.75c-0.71,4.09-1.43,8.18-2.08,12.28   c-0.65,4.1-1.17,8.21-1.72,12.32c-1.02,8.22-1.81,16.47-2.34,24.73c-0.54,8.26-0.86,16.53-1.03,24.82   c-0.04,2.21-1.87,3.96-4.07,3.91c-2.13-0.04-3.84-1.77-3.91-3.88c-0.25-8.48-0.01-16.97,0.61-25.44c0.61-8.46,1.64-16.9,3.01-25.26   c0.67-4.19,1.48-8.35,2.35-12.5c0.86-4.15,1.81-8.28,2.91-12.37c2.21-8.17,4.93-16.22,8.58-23.9c0.23-0.48,0.8-0.68,1.28-0.46   C496.81,625.28,497.02,625.7,496.96,626.1z"/>
</g>
<path class="st12" d="M491.33,600.44c-3.45,0.85-6.35,3.27-8.46,6.12c-3.38,4.56-4.84,10.13-8.04,14.77  c-1.02,1.48-2.04,3.16-11.59,12.48c-3.94,3.84-9.23,8.91-15.65,14.81c4.66,1.45,13.74,5,21.76,13.55  c11.89,12.66,13.32,27.61,13.58,32.1"/>
<path class="st9" d="M465.35,701.8c-2,0.43-3.64,0.93-4.83,1.33c-2.17,0.74-2.75,1.13-3.2,1.67c-1.08,1.32-0.98,3.04-0.94,3.47  c0.33,3.09,2.76,5.67,5.63,6.88c4.05,1.7,8,1.1,9.18,0.87c4.69-0.89,9.52-1.06,14.29-1.04c3.74,0.01,7.48,0.17,11.21,0.4  c3.3,0.21,8.86,1.83,9.65-2.91c0.31-1.85-0.4-3.72-1.24-5.39c-1.65-3.29-4.07-6.47-7.55-7.7"/>
<g>
	<path class="st2" d="M466.2,705.7c-1.23-0.03-2.46,0.06-3.67,0.24c-0.6,0.09-1.23,0.2-1.79,0.32c-0.55,0.12-1.1,0.3-1.22,0.31   c-0.01-0.12-0.23,0.03-0.37,0.24c-0.16,0.22-0.28,0.57-0.32,0.95c-0.06,0.3,0,0.8,0.1,1.22c0.1,0.44,0.27,0.88,0.51,1.3   c0.48,0.84,1.2,1.62,2.06,2.22c0.43,0.29,0.89,0.55,1.38,0.76c0.52,0.21,1.05,0.4,1.6,0.53c1.09,0.29,2.24,0.43,3.39,0.43   c0.58,0,1.16-0.04,1.73-0.1c0.29-0.03,0.57-0.07,0.85-0.12l0.93-0.18c2.71-0.55,5.41-0.85,8.1-1.06c2.69-0.23,5.37-0.37,8.04-0.46   c5.35-0.21,10.69-0.22,16.04-0.4c2.22-0.07,4.08,1.67,4.15,3.89s-1.67,4.08-3.89,4.15c-0.32,0.01-0.65-0.02-0.94-0.08   c-5.12-1.06-10.28-1.74-15.45-2.14c-2.58-0.17-5.16-0.26-7.72-0.24c-2.56,0.06-5.11,0.22-7.58,0.58l-1.01,0.16   c-0.37,0.06-0.74,0.1-1.1,0.13c-0.74,0.06-1.47,0.09-2.21,0.07c-1.47-0.04-2.95-0.22-4.4-0.61c-0.73-0.18-1.43-0.45-2.14-0.72   c-0.73-0.3-1.43-0.67-2.09-1.11c-1.34-0.84-2.51-1.96-3.47-3.32c-0.93-1.4-1.62-2.97-1.75-4.91c-0.05-1.84,0.29-3.98,2.36-5.76   c0.96-0.73,1.65-1.03,2.33-1.38c0.67-0.34,1.29-0.65,1.94-0.95c1.3-0.6,2.61-1.18,3.95-1.77l0.14-0.06   c2.08-0.91,4.5,0.04,5.41,2.11c0.91,2.08-0.04,4.5-2.11,5.41C467.38,705.6,466.77,705.71,466.2,705.7z"/>
</g>
<path class="st9" d="M659.41,731.95c-1.04,6.38-3.2,13.43-8.95,16.36c-3.95,2.02-8.66,1.57-13.06,1.01  c-28.2-3.56-56.12-9.36-83.4-17.35c-3.65-1.07-7.65-1.8-11.18-3.19c-2.5-0.99-4.8-3.15-7.69-3.06c-1.7,0.05-3.06,1.32-4.51,2.21  c-3.87,2.37-8.89,2.11-13.11,0.43c-8.83-3.52-15.51-10.63-16.68-20.24c-0.03-0.26-0.06-0.54-0.2-0.76  c-0.18-0.31-0.51-0.49-0.82-0.66c-3.48-1.91-6.65-4.4-9.33-7.34c-0.26,1.58-0.6,3.58-1.03,5.88c-0.57,3.07-0.83,4.18-1.76,5.35  c-1.1,1.39-2.42,1.96-2.72,2.08c-0.36,0.15-2.44,0.96-4.72,0.11c-2.22-0.83-3.83-2.93-4.22-5.44c-2.06,0.52-4.35,0.06-6.04-1.22  c-1.7-1.28-2.77-3.35-2.83-5.48c-0.21,0.11-2.79,1.37-5.31-0.03c-0.15-0.08-2.19-1.26-2.67-3.59c-0.24-1.14-0.01-2.07,0.33-3.19  c0.94-3.17,1.62-4.66,2.55-6.82c1.83-4.25,4.52-8.31,8.7-10.54c2.98-1.6,6.43-2.11,9.81-2.08c9.57,0.09,18.59,4.31,26.89,9.08  c8.29,4.77,16.32,10.23,25.42,13.2c16.13,5.28,25.34,2.56,46.91,2.61c9.55,0.02,19.07,0.91,28.59,1.25  c0.44,0.02,0.91,0.02,1.26-0.25c0.61-0.47,0.44-1.43,0.2-2.16c-2.08-6.46-4.16-12.91-6.24-19.37c16.28-6.18,33.55-9.76,50.94-10.56  c-0.61,0.03,4.73,25.81,5.15,28.72C661.39,708.51,661.3,720.38,659.41,731.95z"/>
<path class="st8" d="M659.41,731.95c-1.04,6.38-3.2,13.43-8.95,16.36c-3.95,2.02-8.66,1.57-13.06,1.01  c-28.2-3.56-56.12-9.36-83.4-17.35c-3.65-1.07-7.65-1.8-11.18-3.19c-2.5-0.99-4.8-3.15-7.69-3.06c-1.7,0.05-3.06,1.32-4.51,2.21  c-3.87,2.37-8.89,2.11-13.11,0.43c-8.83-3.52-15.51-10.63-16.68-20.24c-0.03-0.26-0.06-0.54-0.2-0.76  c-0.18-0.31-0.51-0.49-0.82-0.66c-1.82-1-3.73-2.13-5.28-3.53c-0.58-0.52-2.66-3.92-2.75-3.96c7.6,2.95,13.58,8.89,20.29,13.53  c6.71,4.64,15.3,8.09,22.92,5.2c0.77-0.29,1.53-0.65,2.35-0.76c0.88-0.12,1.77,0.06,2.64,0.24c23.61,4.79,47.22,9.58,70.83,14.38  c5.97,1.21,12.07,2.43,18.1,1.61s12.09-4.07,14.63-9.61c1.45-3.17,1.64-6.76,1.66-10.24c0.09-15.31-2.55-30.63-7.75-45.03  c5.76-0.01,11.34-0.06,17.09-0.32c-0.61,0.03,4.73,25.81,5.15,28.72C661.39,708.51,661.3,720.38,659.41,731.95z"/>
<g>
	<path class="st2" d="M659.07,669.09c1.89,8.37,3.42,16.83,4.46,25.39c1.03,8.56,1.59,17.23,1.18,26c-0.21,4.38-0.68,8.8-1.59,13.21   c-0.46,2.2-1.02,4.42-1.82,6.65c-0.79,2.23-1.85,4.5-3.41,6.66c-1.56,2.14-3.83,4.15-6.46,5.26c-2.6,1.14-5.3,1.49-7.74,1.52   c-2.46,0.03-4.74-0.24-6.87-0.51l-6.34-0.84c-16.89-2.34-33.66-5.47-50.25-9.4c-8.3-1.95-16.54-4.12-24.74-6.48l-3.02-0.86   l-3.05-0.83c-2.07-0.57-4.14-1.16-6.2-1.78c-4.12-1.25-8.19-2.59-12.24-4.04l3.26-0.25c-1.21,0.66-2.49,1.22-3.8,1.67   c-0.33,0.11-0.66,0.21-1,0.31c-0.37,0.11-0.71,0.19-1.06,0.27c-0.68,0.15-1.35,0.28-2.02,0.38c-2.67,0.39-5.42,0.4-8.19-0.09   c-2.77-0.51-5.47-1.57-7.82-3.06c-2.35-1.48-4.39-3.32-6.1-5.33c-1.72-2.01-3.16-4.18-4.36-6.45c-0.6-1.13-1.15-2.29-1.65-3.49   c-0.25-0.6-0.48-1.21-0.7-1.84c-0.11-0.32-0.22-0.64-0.32-0.99l-0.16-0.56l-0.08-0.34l-0.05-0.23l-0.02-0.11l-0.04-0.32l-0.02-0.33   c-0.01-0.13,0-0.2,0-0.14l0.01,0.18c0.01,0.11,0.03,0.22,0.05,0.33c0.05,0.22,0.13,0.46,0.28,0.71c0.22,0.38,0.5,0.66,0.65,0.78   c0.16,0.13,0.22,0.15,0.19,0.14l-0.75-0.42l-0.83-0.49c-1.1-0.67-2.16-1.38-3.19-2.15c-2.06-1.53-3.96-3.26-5.7-5.15l6.89-2.05   l-1.2,6.79c-0.25,1.17-0.39,2.34-1.1,4.1c-0.36,0.88-0.95,1.79-1.51,2.44c-0.57,0.68-1.23,1.29-1.95,1.81   c-0.72,0.52-1.47,0.96-2.42,1.32c-0.89,0.33-1.71,0.52-2.6,0.62c-1.75,0.21-3.7-0.03-5.42-0.82c-1.72-0.78-3.16-2.03-4.18-3.48   c-1.03-1.45-1.67-3.11-1.95-4.81l4.92,3.25c-3.29,0.81-6.71,0.12-9.42-1.9c-2.69-2.06-4.29-5.15-4.42-8.54l0-0.01l5.81,3.43   c-0.56,0.23-0.9,0.31-1.33,0.41c-0.41,0.09-0.81,0.15-1.21,0.2c-0.81,0.09-1.65,0.09-2.49-0.01c-0.84-0.1-1.69-0.34-2.48-0.68   c-0.4-0.16-0.77-0.37-1.14-0.58c-0.48-0.29-0.75-0.52-1.06-0.79c-1.15-1.04-2.15-2.33-2.69-3.94c-0.26-0.8-0.41-1.63-0.42-2.5   c-0.01-0.87,0.16-1.67,0.33-2.31c0.18-0.65,0.37-1.13,0.53-1.65l0.53-1.56c0.37-1.04,0.8-2.08,1.21-3.08c0.8-1.9,1.7-4.02,2.9-5.98   c1.2-1.97,2.67-3.85,4.51-5.45c1.82-1.6,4.08-2.85,6.38-3.57c2.3-0.74,4.65-1.04,6.92-1.1c2.27-0.03,4.52,0.1,6.73,0.46   c8.86,1.45,16.73,5.44,24.02,9.63c7.29,4.19,14.21,8.63,21.63,11.31c3.7,1.3,7.61,2.33,11.47,2.91c3.89,0.6,7.84,0.75,11.9,0.66   c4.05-0.08,8.2-0.34,12.38-0.52c4.19-0.19,8.4-0.32,12.63-0.35c4.24-0.01,8.49,0.1,12.73,0.38c2.12,0.14,4.23,0.31,6.35,0.52   c2.11,0.21,4.22,0.47,6.34,0.6c2.12,0.18,4.17,0.85,6.23,1.33c2.06,0.54,4.1,1.13,6.13,1.75c2.02,0.65,4.04,1.31,6.03,2.02   c1.99,0.72,3.96,1.49,5.91,2.31c0.78,0.33,1.15,1.23,0.82,2.01c-0.27,0.65-0.93,1.01-1.59,0.93l-0.02,0l-6.2-0.72   c-2.05-0.27-4.11-0.47-6.16-0.66c-2.05-0.22-4.1-0.38-6.14-0.57l-3.07-0.23c-1.02-0.06-2.04-0.15-3.04-0.36   c-2-0.44-4.02-0.7-6.05-0.93c-2.03-0.24-4.06-0.44-6.09-0.61c-4.06-0.34-8.14-0.53-12.22-0.59c-4.1-0.05-8.21,0-12.34,0.11   c-4.13,0.11-8.3,0.29-12.57,0.29c-4.26,0.02-8.66-0.22-12.99-0.97c-4.35-0.75-8.51-1.92-12.63-3.46   c-8.22-3.18-15.34-7.91-22.4-12.1c-3.53-2.1-7.07-4.06-10.72-5.69c-3.64-1.63-7.41-2.84-11.22-3.47   c-3.79-0.58-7.75-0.65-11.08,0.41c-1.67,0.53-3.13,1.34-4.45,2.47c-1.31,1.13-2.45,2.54-3.42,4.13c-0.98,1.59-1.72,3.31-2.54,5.24   c-0.4,0.92-0.71,1.82-1.02,2.75l-0.43,1.41c-0.14,0.47-0.26,0.99-0.34,1.35c-0.07,0.38-0.07,0.61-0.05,0.78   c0.02,0.17,0.09,0.37,0.2,0.55c0.2,0.34,0.55,0.73,1.04,0.97c0.1,0.05,0.26,0.13,0.24,0.08c0.1,0.02,0.19,0.05,0.29,0.05   c0.19,0.01,0.37-0.01,0.56-0.06c0.2-0.05,0.4-0.14,0.61-0.25c0.1-0.06,0.21-0.12,0.29-0.2c0.07-0.06,0.22-0.18,0.12-0.18l5.81,3.43   l0,0c0.01,0.86,0.54,1.91,1.25,2.41c0.68,0.54,1.83,0.77,2.66,0.54c2.08-0.58,4.23,0.64,4.81,2.71c0.04,0.14,0.07,0.29,0.1,0.44   l0.01,0.1c0.17,1.09,0.85,1.97,1.54,2.26c0.34,0.15,0.72,0.22,1.22,0.16c0.23-0.02,0.52-0.09,0.69-0.16   c0.11-0.04,0.35-0.17,0.55-0.31c0.2-0.15,0.38-0.31,0.54-0.5c0.17-0.21,0.2-0.26,0.28-0.43c0.16-0.34,0.4-1.42,0.6-2.47l1.16-6.58   l0.01-0.04c0.38-2.17,2.46-3.62,4.63-3.24c0.9,0.16,1.67,0.61,2.25,1.23c1.39,1.51,2.92,2.9,4.57,4.13   c0.83,0.61,1.68,1.19,2.56,1.72l0.66,0.39l0.76,0.42c0.22,0.13,0.52,0.3,0.91,0.62c0.37,0.3,0.85,0.79,1.21,1.43   c0.28,0.5,0.47,1.01,0.58,1.51c0.06,0.25,0.09,0.5,0.12,0.76c0.01,0.13,0.02,0.26,0.02,0.39c0,0.09,0,0.06,0-0.04   c0-0.07-0.01-0.15-0.01-0.22l-0.03-0.24c-0.01-0.02,0.01,0.05,0.02,0.08l0.08,0.27l0.21,0.66c0.16,0.46,0.34,0.93,0.53,1.4   c0.39,0.94,0.83,1.87,1.31,2.78c0.96,1.81,2.1,3.51,3.38,5.01c2.57,3.01,5.75,5.11,9.29,5.73c1.78,0.32,3.71,0.33,5.61,0.05   c0.47-0.07,0.94-0.16,1.39-0.26c0.22-0.05,0.44-0.11,0.62-0.16l0.66-0.21c0.87-0.3,1.72-0.67,2.54-1.11   c1.04-0.57,2.23-0.62,3.26-0.25c3.92,1.4,7.88,2.71,11.86,3.92c1.99,0.6,3.99,1.17,6,1.73l3.07,0.84l3.08,0.88   c8.07,2.32,16.2,4.46,24.37,6.38c16.34,3.87,32.87,6.96,49.51,9.26l6.24,0.83c2.06,0.26,3.99,0.47,5.77,0.44   c1.78-0.02,3.35-0.28,4.64-0.85c1.28-0.55,2.3-1.43,3.24-2.69c1.87-2.55,3.04-6.34,3.84-10.19c0.8-3.88,1.24-7.9,1.43-11.97   c0.38-8.14-0.14-16.42-1.14-24.65c-1-8.24-2.48-16.45-4.32-24.59c-0.49-2.15,0.86-4.29,3.01-4.78   C656.45,665.59,658.59,666.94,659.07,669.09L659.07,669.09z"/>
</g>
<path class="st12" d="M598.57,545.47c12.31,4.04,14.92,9.81,15.64,12.35c0.93,3.24,0.08,5.74-1.53,13.18  c-1.66,7.65-2.73,14.05-3.42,18.63"/>
<g>
	<path class="st13" d="M481,525.09c1.4,2.65,4.25,4.84,7.79,6.49c0.88,0.42,1.77,0.79,2.74,1.15c0.95,0.38,1.91,0.72,2.89,1.03   c1.96,0.6,3.94,1.21,5.99,1.62c2.04,0.43,4.1,0.84,6.2,1.1c2.09,0.31,4.22,0.52,6.36,0.69c4.28,0.35,8.64,0.46,13.07,0.62l0.02,0   c1.11,0.04,1.98,0.97,1.94,2.08c-0.03,0.92-0.68,1.67-1.52,1.88c-4.41,1.1-8.93,1.82-13.54,2.11c-4.6,0.29-9.29,0.17-13.97-0.54   c-2.34-0.35-4.67-0.83-6.97-1.49c-1.15-0.33-2.29-0.69-3.43-1.1c-1.13-0.37-2.28-0.87-3.42-1.39c-2.27-1.05-4.51-2.4-6.56-4.2   c-2.04-1.79-3.86-4.15-4.91-6.9c-0.79-2.06,0.25-4.37,2.31-5.16c1.91-0.73,4.02,0.1,4.95,1.86L481,525.09z"/>
</g>
<path class="st12" d="M503.3,540.18c2.01,21.39,2.09,42.96,0.25,64.37c-0.12,1.45-0.26,2.92-0.04,4.37"/>
<g>
	<path class="st2" d="M506.23,560.82l-29.59,18.95l0.76-6.22c9.34,9.75,17.74,20.4,25.16,31.68c7.42,11.28,13.82,23.24,19.11,35.65   l-7.27-0.32c2.5-4.69,4.94-9.41,7.29-14.18c1.18-2.38,2.33-4.77,3.47-7.18l3.29-7.17l1.64-3.58c0.15-0.31,0.27-0.59,0.36-0.87   l0.38-0.98c0.27-0.67,0.55-1.33,0.84-1.99c1.17-2.63,2.56-5.17,4.12-7.6c0.79-1.22,1.61-2.38,2.5-3.55   c0.91-1.17,1.85-2.28,2.83-3.34c1.96-2.12,4.06-4.06,6.26-5.87c2.2-1.81,4.49-3.47,6.87-5c2.38-1.52,4.82-2.94,7.41-4.2   c2.59-1.26,5.28-2.29,7.83-3.2c2.57-0.9,5.01-1.74,7.44-2.66c4.84-1.85,9.61-3.94,14.26-6.29c2.33-1.18,4.67-2.35,7.05-3.49   c2.39-1.13,4.79-2.27,7.36-3.22l0.02-0.01c0.82-0.31,1.74,0.11,2.04,0.94c0.21,0.55,0.08,1.15-0.27,1.58   c-1.8,2.14-3.84,4-5.98,5.73c-2.14,1.73-4.42,3.28-6.79,4.69c-4.73,2.82-9.65,5.35-14.77,7.44c-2.55,1.07-5.17,1.99-7.64,2.89   c-2.49,0.89-4.82,1.77-7.05,2.85c-2.24,1.07-4.43,2.34-6.57,3.7c-2.13,1.36-4.18,2.84-6.13,4.44c-1.94,1.6-3.78,3.31-5.45,5.12   c-0.84,0.91-1.63,1.84-2.36,2.79c-0.73,0.96-1.46,1.99-2.12,3.02c-1.34,2.08-2.52,4.26-3.52,6.52c-0.25,0.56-0.49,1.14-0.72,1.71   l-0.35,0.89c-0.13,0.36-0.26,0.69-0.41,0.99l-1.7,3.73l-3.4,7.44c-1.15,2.44-2.32,4.88-3.52,7.3c-2.38,4.85-4.85,9.65-7.39,14.42   c-1.05,1.97-3.49,2.71-5.45,1.66c-0.84-0.45-1.46-1.15-1.81-1.97l0-0.01c-5.13-11.97-11.31-23.49-18.48-34.36   c-7.15-10.88-15.32-21.08-24.26-30.54l-0.01-0.02c-1.54-1.63-1.47-4.19,0.16-5.73c0.19-0.18,0.4-0.34,0.61-0.48l29.66-18.83   c1.86-1.18,4.33-0.63,5.51,1.23C508.63,557.18,508.1,559.64,506.23,560.82z"/>
</g>
<g>
	<path class="st2" d="M590.42,565.22c1.16-10.81,3.9-21.48,8.13-31.57l0-0.01c0.85-2.03,3.19-2.99,5.23-2.14s2.99,3.19,2.14,5.23   c-0.02,0.05-0.05,0.12-0.07,0.17c-4.35,9.19-7.38,19.04-8.94,29.16c-0.27,1.79-1.94,3.02-3.73,2.74   C591.45,568.54,590.24,566.95,590.42,565.22z"/>
</g>
<g>
	<path class="st2" d="M597.33,588.49c2.22-0.52,4.54-0.72,6.9-0.63c2.36,0.13,4.76,0.6,7.07,1.46c2.32,0.82,4.53,2.14,6.45,3.64   c1.96,1.5,3.63,3.16,5.24,4.86c5.55,7.42,9.77,15.26,13.94,22.92c2.07,3.77,4.2,7.39,6.59,10.86c1.19,1.74,2.45,3.44,3.76,5.22   c1.31,1.77,2.65,3.65,3.89,5.62c2.5,3.95,4.45,8.11,6.23,12.24c1.76,4.16,3.29,8.41,4.58,12.74c0.63,2.11-0.57,4.34-2.69,4.97   s-4.34-0.57-4.97-2.69l0-0.01c-1.2-4.05-2.62-8.03-4.26-11.92c-1.67-3.89-3.44-7.68-5.61-11.11c-1.08-1.73-2.28-3.41-3.56-5.16   c-1.28-1.75-2.62-3.55-3.89-5.43c-2.56-3.73-4.86-7.66-6.98-11.55c-2.1-3.87-4.14-7.66-6.31-11.34c-1.08-1.84-2.2-3.65-3.34-5.42   c-1.1-1.79-2.57-3.31-3.66-5.04c-1.09-1.73-2.23-3.43-3.49-4.89c-1.23-1.52-2.62-2.77-4.22-3.87c-3.2-2.19-7.25-3.4-11.52-3.72   c-0.49-0.04-0.86-0.46-0.82-0.95C596.68,588.89,596.97,588.58,597.33,588.49z"/>
</g>
<g>
	<path class="st2" d="M580.65,636.93c-0.3,9.14,0.58,18.25,2.66,27c2.08,8.76,5.33,17.15,9.65,24.9c1.07,1.93,0.38,4.37-1.55,5.44   s-4.37,0.38-5.44-1.55c-0.07-0.13-0.13-0.26-0.19-0.39l-0.01-0.03c-3.72-8.83-6.18-18.13-7.34-27.5   c-1.16-9.38-1.02-18.83,0.3-28.04c0.08-0.53,0.57-0.9,1.09-0.82C580.31,636.01,580.66,636.45,580.65,636.93z"/>
</g>
<path class="st12" d="M589.36,690.57c4.16-6.11,9.87-9.38,17.16-12.38c15.01-6.2,47.32-15.7,52.02-6.78"/>
<g>
	<path class="st2" d="M463.47,699.02c0.05,0.05,0.28-0.22,0.54-0.8l0.86-1.86l1.73-3.74c1.22-2.46,2.11-5.07,3.58-7.81   c0.74-1.35,1.67-2.77,2.95-3.93c1.27-1.17,2.84-1.96,4.36-2.39c3.09-0.88,6.12-0.61,8.92-0.01c0.51,0.11,0.83,0.61,0.72,1.12   c-0.1,0.45-0.5,0.76-0.95,0.74l-0.02,0c-2.66-0.08-5.34,0.25-7.46,1.33c-2.19,1.07-3.26,2.78-4.01,5.13   c-0.76,2.34-1.2,5.12-1.96,7.83l-1.05,4.09l-0.53,2.05c-0.2,0.72-0.48,1.76-1.24,2.93c-1.3,1.78-3.79,2.18-5.58,0.88   C462.56,703.3,462.17,700.8,463.47,699.02z"/>
</g>
<g>
	<path class="st2" d="M471.67,705.06c2.48-5.04,4.86-10.13,6.78-15.3c0.24-0.66,0.46-1.27,0.7-1.98c0.26-0.78,0.63-1.69,1.17-2.52   c1.07-1.72,3.03-2.96,4.86-3.28c1.84-0.37,3.52-0.15,5.05,0.21c1.54,0.37,2.96,0.92,4.32,1.55c0.72,0.34,1.03,1.19,0.69,1.91   c-0.31,0.65-1.04,0.97-1.71,0.77l-0.01,0c-1.29-0.39-2.6-0.66-3.87-0.77c-1.26-0.1-2.49-0.02-3.4,0.34   c-0.93,0.37-1.45,0.91-1.78,1.68c-0.17,0.4-0.28,0.84-0.38,1.43c-0.12,0.67-0.26,1.43-0.41,2.14c-1.2,5.75-2.85,11.31-4.6,16.82   c-0.67,2.11-2.92,3.27-5.03,2.6s-3.27-2.92-2.6-5.03c0.06-0.19,0.13-0.37,0.21-0.54L471.67,705.06z"/>
</g>
<path class="st12" d="M604.35,679.11c0.84,3.7,2.15,8.09,4.22,12.83c1.64,3.74,3.43,6.96,5.13,9.65"/>
<path class="st12" d="M589.36,690.57c2.66,0.17,5.63,0.24,8.84,0.1c3.27-0.14,6.27-0.47,8.94-0.88"/>
<g>
	<path class="st2" d="M528.34,723.04c1.64-1.17,3.1-2.68,4.25-4.49c1.15-1.81,1.97-3.91,2.39-6.16l0-0.02   c0.12-0.65,0.74-1.07,1.39-0.95c0.52,0.1,0.9,0.52,0.96,1.02c0.32,2.55,0.19,5.23-0.49,7.86c-0.67,2.63-1.88,5.2-3.57,7.49   l-0.11,0.16c-1.14,1.55-3.32,1.88-4.87,0.74c-1.55-1.14-1.88-3.32-0.74-4.87C527.78,723.51,528.05,723.24,528.34,723.04z"/>
</g>
<g>
	<path class="st2" d="M464.1,658.73c-9.44,7.1-17.95,15.44-25.24,24.74l0,0l-0.07,0.08c-0.86,1.1-2.22,1.59-3.51,1.42   c-6.51-0.86-13.13-1.23-19.7-1.11c-3.28,0.05-6.48,0.3-9.8,0.67c-3.31,0.39-6.79,0.77-10.23,1.04c-1.79,0.13-3.29,0.22-4.94,0.42   c-1.63,0.18-3.29,0.41-4.97,0.63c-3.37,0.44-6.86,0.86-10.47,0.92c-3.6,0.06-7.35-0.34-10.95-1.46c-1.81-0.54-3.54-1.31-5.21-2.2   l-4.43-2.46c-2.9-1.58-5.82-3.01-8.8-4.04c-2.97-1.05-6-1.7-9.01-1.69c-6.07-0.05-12.12,2.43-18.03,5.42   c-2.97,1.49-5.96,3.1-9.08,4.61l-2.37,1.1l-2.43,1.03c-0.83,0.31-1.66,0.64-2.49,0.94l-2.38,0.82c-0.74,0.27-1.45,0.54-2.09,0.85   c-0.32,0.15-0.62,0.32-0.91,0.48c-0.26,0.16-0.6,0.38-0.74,0.5c-0.9,0.72-1.7,1.91-1.79,2.72c-0.09,0.81,0.23,1.29,0.95,1.79   c0.72,0.47,1.83,0.66,2.81,0.39l0.01,0c1.25-0.31,2.52,0.41,2.91,1.62l0.44,1.37c0,0.01,0.08,0.22,0.14,0.34   c0.07,0.14,0.15,0.26,0.24,0.36c0.16,0.2,0.32,0.31,0.54,0.39c0.2,0.09,0.38,0.11,0.66,0.09c0.14-0.01,0.3-0.05,0.47-0.1   c0.08-0.02,0.16-0.06,0.24-0.09c0.05-0.02,0.18-0.09,0.09-0.04l4.11,0.02c1.46,0.89,2.92,1.34,4.07,1.28   c0.29-0.02,0.58-0.05,0.83-0.12c0.25-0.06,0.43-0.13,0.68-0.26c0.47-0.24,1.21-0.81,2.02-1.48c1.62-1.4,3.51-2.83,5.29-4.22   l5.4-4.19l0.03-0.02l0.09-0.07c0.7-0.53,1.54-0.75,2.34-0.69c5.55,0.46,11.05,0.76,16.65,1.21c1.41,0.11,2.81,0.22,4.3,0.42   c0.76,0.11,1.51,0.2,2.41,0.41l0.74,0.21l0.45,0.16c0.15,0.06,0.28,0.11,0.49,0.22c0.19,0.1,0.37,0.19,0.56,0.32   c0.24,0.17,0.46,0.35,0.67,0.54c0.24,0.24,0.48,0.55,0.67,0.85c0.18,0.32,0.34,0.7,0.43,1.04c0.34,1.47-0.08,2.46-0.39,3.16   c-0.33,0.62-0.69,1.1-1.02,1.48c-0.67,0.76-1.31,1.3-1.95,1.8c-1.3,0.98-2.53,1.78-3.98,2.53c-0.72,0.37-1.61,0.75-2.46,0.98   c-0.88,0.24-1.24,0.31-1.68,0.49c-0.91,0.37-1.93,1-2.78,1.69c-0.86,0.71-1.61,1.56-2.17,2.43c-0.57,0.84-0.87,1.85-0.82,2.19   c-0.01,0.04,0.02,0.22,0.04,0.26c0.02,0.06,0.01,0.01-0.1-0.1c-0.3-0.27-0.44-0.17-0.21-0.19c0.05,0,0.11-0.01,0.21-0.03l0.48-0.09   l1.01-0.19l2.02-0.38l4.02-0.79l1.98-0.43l0.95-0.22l0.44-0.11l0.19-0.05l0.06-0.02c0,0,0.02-0.01,0.01,0l-0.02,0.01l-0.03,0.01   c-0.18,0.07-0.36,0.16-0.52,0.27l0.42-0.23c2.01-0.88,4.02-1.77,6.13-2.62c2.1-0.84,4.36-1.65,6.84-2.07   c0.62-0.11,1.25-0.18,1.87-0.23c0.62-0.05,1.29-0.07,1.82-0.07l3.33-0.01c2.22,0,4.45,0.05,6.66,0.13   c8.88,0.31,17.69,1.21,26.37,1.85c8.69,0.65,17.32,0.97,25.96,0.56l3.24-0.15l3.24-0.23c2.17-0.14,4.29-0.32,6.42-0.58   c4.25-0.48,8.47-1.21,12.65-2.15c1.83-0.41,3.64,0.74,4.05,2.56c0.41,1.83-0.74,3.64-2.56,4.05c-0.04,0.01-0.09,0.02-0.12,0.03   c-4.42,0.82-8.88,1.43-13.35,1.84c-2.23,0.21-4.49,0.35-6.7,0.44l-3.33,0.15L429.1,714c-8.89,0.21-17.81-0.17-26.6-0.95   l-13.11-1.21c-4.34-0.36-8.67-0.67-13-0.8c-2.16-0.07-4.33-0.12-6.49-0.12l-3.24,0.01c-0.57,0-0.99,0.01-1.47,0.05   c-0.47,0.03-0.93,0.09-1.39,0.17c-1.84,0.31-3.75,0.97-5.71,1.76c-1.96,0.79-3.96,1.67-5.96,2.55l0.42-0.23   c-0.17,0.11-0.36,0.21-0.55,0.28l-0.06,0.02l-0.08,0.03l-0.11,0.04l-0.18,0.06l-0.31,0.09l-0.56,0.15l-1.06,0.25l-2.08,0.45   l-4.11,0.81l-2.05,0.38l-1.02,0.19l-0.54,0.1c-0.25,0.04-0.53,0.08-0.82,0.1c-1.13,0.07-2.75-0.14-4.04-1.41   c-0.6-0.61-0.95-1.27-1.17-1.86c-0.22-0.61-0.33-1.11-0.39-1.76c-0.09-1.23,0.14-2.25,0.43-3.16c0.3-0.92,0.72-1.69,1.16-2.44   c0.91-1.47,2.01-2.72,3.26-3.79c1.27-1.08,2.59-1.99,4.21-2.71c0.83-0.38,1.82-0.62,2.27-0.76c0.47-0.15,0.86-0.33,1.36-0.6   c0.99-0.55,2.07-1.28,2.94-2.02c0.43-0.36,0.82-0.75,1.05-1.04c0.12-0.15,0.15-0.24,0.15-0.23c-0.04,0.08-0.24,0.37-0.07,1.15   c0.04,0.18,0.12,0.4,0.23,0.56c0.08,0.17,0.22,0.33,0.34,0.45c0.08,0.09,0.17,0.17,0.27,0.22c0.05,0.04,0.07,0.05,0.1,0.07   c0.06,0.02,0.02,0.02,0.01,0.02c-0.01,0-0.02-0.01-0.04-0.01l-0.26-0.06c-0.45-0.08-1.07-0.15-1.69-0.19   c-1.26-0.09-2.62-0.12-3.98-0.15c-2.72-0.06-5.48-0.04-8.24-0.01c-2.76,0.02-5.51,0.05-8.27,0.12l2.44-0.76l-0.02,0.02l-5.14,3.99   c-1.73,1.35-3.4,2.59-5.14,4.1c-0.9,0.73-1.89,1.59-3.39,2.4c-0.74,0.39-1.6,0.73-2.43,0.94c-0.83,0.21-1.64,0.31-2.46,0.36   c-3.32,0.13-6.22-1.03-8.54-2.43l4.11,0.02c-0.46,0.27-0.73,0.38-1.08,0.53c-0.33,0.14-0.65,0.26-0.99,0.36   c-0.67,0.2-1.36,0.35-2.08,0.41c-1.44,0.13-3.03-0.07-4.44-0.66c-1.4-0.56-2.67-1.52-3.62-2.66c-0.48-0.57-0.87-1.17-1.2-1.81   c-0.33-0.65-0.58-1.25-0.8-2.08l3.34,2.99l-0.02-0.01c-2.34-0.74-4.52-1.92-6.2-3.86c-0.82-0.97-1.53-2.15-1.86-3.49   c-0.34-1.34-0.31-2.77,0.03-4c0.34-1.24,0.91-2.27,1.55-3.17c0.65-0.91,1.34-1.66,2.22-2.4c0.52-0.42,0.89-0.65,1.35-0.94   c0.44-0.26,0.88-0.51,1.33-0.72c0.89-0.43,1.76-0.77,2.6-1.08l2.42-0.84c0.76-0.27,1.5-0.58,2.25-0.86l2.24-0.96l2.23-1.05   c2.97-1.45,5.93-3.05,8.99-4.61c3.06-1.55,6.25-3.04,9.65-4.2c3.4-1.16,7.06-1.93,10.81-1.95c3.76-0.04,7.45,0.73,10.85,1.89   c3.43,1.15,6.6,2.7,9.68,4.28l4.49,2.38c1.34,0.67,2.71,1.26,4.16,1.65c2.88,0.83,5.94,1.12,9.09,1.01   c3.16-0.11,6.39-0.56,9.71-1.06c1.67-0.25,3.35-0.52,5.08-0.74c1.7-0.24,3.57-0.39,5.16-0.54c3.3-0.3,6.53-0.81,9.92-1.3   c3.39-0.5,6.93-0.89,10.41-1.05c6.95-0.34,13.88-0.2,20.82,0.39l-3.57,1.51l0,0c7.71-9.85,16.73-18.69,26.73-26.2   c1.76-1.33,4.27-0.97,5.59,0.79C466.22,654.9,465.86,657.41,464.1,658.73z"/>
</g>
<g>
	<path class="st2" d="M304.58,705.62c-0.62-0.77-1.21-1.7-1.56-2.86c-0.36-1.15-0.37-2.54-0.02-3.7c0.35-1.16,0.96-2.06,1.58-2.78   c0.63-0.72,1.3-1.29,1.97-1.78c0.66-0.49,1.38-0.91,1.94-1.25c0.57-0.34,1.14-0.7,1.71-1.07c1.14-0.75,2.26-1.55,3.37-2.37   c4.45-3.32,8.74-6.98,12.97-10.7c0.28-0.25,0.7-0.22,0.95,0.06c0.22,0.25,0.22,0.63,0.01,0.88c-3.69,4.29-7.43,8.53-11.51,12.57   c-1.03,1.01-2.07,2-3.17,2.97c-0.55,0.48-1.11,0.96-1.7,1.43c-0.59,0.47-1.04,0.83-1.46,1.25c-0.84,0.79-1.38,1.72-1.36,2.15   c0.01,0.21,0.06,0.28,0.17,0.46c0.11,0.17,0.32,0.43,0.64,0.71c1.26,1.11,1.39,3.04,0.27,4.3c-1.11,1.26-3.04,1.39-4.3,0.27   c-0.13-0.11-0.25-0.24-0.35-0.36L304.58,705.62z"/>
</g>
<g>
	<path class="st2" d="M295.89,701.88c-0.3-1.86-0.07-3.87,0.66-5.61c0.74-1.74,1.88-3.15,3.09-4.25c2.46-2.24,5.13-3.5,7.52-4.96   c4.9-2.9,9.69-6.03,14.41-9.28c0.29-0.2,0.68-0.13,0.88,0.16c0.18,0.27,0.13,0.62-0.1,0.83c-4.31,3.81-8.72,7.52-13.31,11.06   c-2.3,1.8-4.69,3.38-6.26,5.26c-0.8,0.93-1.35,1.91-1.61,2.86c-0.25,0.95-0.23,1.91,0.05,2.86c0.43,1.44-0.39,2.96-1.83,3.4   c-1.44,0.43-2.96-0.39-3.4-1.83c-0.03-0.11-0.06-0.22-0.08-0.33L295.89,701.88z"/>
</g>
<g>
	<path class="st2" d="M435.16,679.94c2.17,0.64,4.14,1.82,5.68,3.34c1.54,1.52,2.64,3.34,3.34,5.24c0.22,0.6-0.09,1.26-0.68,1.47   c-0.5,0.19-1.06-0.01-1.35-0.43l-0.02-0.02c-0.97-1.42-2.2-2.61-3.57-3.4c-1.37-0.8-2.86-1.22-4.35-1.27   c-1.4-0.05-2.5-1.22-2.45-2.62s1.22-2.5,2.62-2.45c0.22,0.01,0.42,0.04,0.62,0.1L435.16,679.94z"/>
</g>
<g>
	<path class="st2" d="M327.87,696.04c3.21,4.31,4.47,9.62,3.78,14.45c-0.02,0.12-0.13,0.21-0.26,0.19c-0.1-0.01-0.18-0.1-0.19-0.2   c-0.55-4.72-3.01-8.95-6.36-11.58c-0.91-0.72-1.07-2.04-0.35-2.95c0.72-0.91,2.04-1.07,2.95-0.35c0.15,0.12,0.27,0.25,0.38,0.39   L327.87,696.04z"/>
</g>
<path class="st14" d="M305.9,705.03c-0.53,0.75-1.09,1.7-1.53,2.84c-1.31,3.37-0.92,6.45-0.59,8.02"/>
<g>
	<path class="st2" d="M357.72,707.19c1.41-0.88,2.74-1.9,3.95-3.07c0.61-0.59,1.19-1.2,1.73-1.86l1.55-2.06l0.07-0.09   c0.3-0.4,0.87-0.48,1.27-0.18c0.35,0.26,0.46,0.73,0.27,1.12l-1.21,2.52c-0.44,0.83-0.94,1.62-1.48,2.4   c-1.08,1.55-2.33,3-3.73,4.31l-0.02,0.02c-0.79,0.75-2.04,0.71-2.78-0.09s-0.71-2.04,0.09-2.78   C357.5,707.34,357.61,707.26,357.72,707.19z"/>
</g>
<g>
	<path class="st5" d="M497.05,774.54l71.86-12.94c0.25-3.91,0.5-7.81,0.76-11.72c-48.41-11.04-96.83-22.08-145.24-33.12l-65.51,3.83   l-0.42,12.6C404.68,746.98,450.86,760.76,497.05,774.54z"/>
	<path class="st15" d="M358.92,720.59c1.07,1.04,2.14,2.07,3.21,3.11c45.12,12.7,90.23,25.4,135.35,38.1   c24.35-3.32,48.7-6.63,73.05-9.95c-48.7-11.7-97.4-23.39-146.1-35.09L358.92,720.59z"/>
	<path class="st6" d="M497.05,774.54l71.86-12.94c0.25-3.91,0.5-7.81,0.76-11.72c-48.41-11.04-96.83-22.08-145.24-33.12l-65.51,3.83   l-0.42,12.6C404.68,746.98,450.86,760.76,497.05,774.54z"/>
	<g>
		<path class="st16" d="M497.51,756.59l11.61-1.05l-120.83-31.62l-11.46,0.23C417.05,734.97,457.28,745.78,497.51,756.59z"/>
		<path class="st15" d="M383.97,726.62c0.66-0.18,12.85-0.87,12.85-0.87l1.65,0.58c-4.24,0.24-8.48,0.49-12.72,0.73    C385.17,726.91,384.57,726.77,383.97,726.62z"/>
		<path class="st15" d="M396.05,729.66c0.66-0.18,12.85-0.87,12.85-0.87l1.65,0.58c-4.24,0.24-8.48,0.49-12.72,0.73    C397.24,729.96,396.65,729.81,396.05,729.66z"/>
		<path class="st15" d="M408.14,732.83c0.66-0.23,12.69-0.8,12.69-0.8l1.62,0.84c-4.18,0.2-8.37,0.41-12.55,0.61    C409.31,733.27,408.72,733.05,408.14,732.83z"/>
		<path class="st15" d="M423.72,736.94c0.66-0.23,12.69-0.8,12.69-0.8l1.62,0.84c-4.18,0.2-8.37,0.41-12.55,0.61    C424.89,737.38,424.3,737.16,423.72,736.94z"/>
		<path class="st15" d="M437.65,740.69c0.69-0.31,13.32-1.07,13.32-1.07l1.7,1.12c-4.39,0.28-8.79,0.55-13.18,0.83    C438.88,741.27,438.26,740.98,437.65,740.69z"/>
		<path class="st15" d="M454.06,745.15c0.74-0.33,14.29-1.15,14.29-1.15l1.82,1.2c-4.71,0.29-9.42,0.59-14.13,0.88    C455.37,745.78,454.72,745.46,454.06,745.15z"/>
		<path class="st15" d="M475.5,750.77c0.74-0.33,14.29-1.15,14.29-1.15l1.82,1.2c-4.71,0.29-9.42,0.59-14.13,0.88    C476.81,751.39,476.15,751.08,475.5,750.77z"/>
	</g>
	<g>
		<path class="st16" d="M513.31,754.9l11.15-1.01L408.4,723.52l-11.01,0.22C436.03,734.13,474.67,744.51,513.31,754.9z"/>
		<path class="st15" d="M404.26,726.11c0.64-0.18,12.34-0.84,12.34-0.84l1.59,0.56c-4.07,0.23-8.14,0.47-12.22,0.7    C405.41,726.39,404.84,726.25,404.26,726.11z"/>
		<path class="st15" d="M415.86,729.03c0.64-0.18,12.34-0.84,12.34-0.84l1.59,0.56c-4.07,0.23-8.14,0.47-12.22,0.7    C417.01,729.32,416.43,729.18,415.86,729.03z"/>
		<path class="st15" d="M427.48,732.08c0.63-0.22,12.19-0.76,12.19-0.76l1.55,0.81c-4.02,0.2-8.04,0.39-12.06,0.59    C428.6,732.5,428.04,732.29,427.48,732.08z"/>
		<path class="st15" d="M442.44,736.03c0.63-0.22,12.19-0.76,12.19-0.76l1.55,0.81c-4.02,0.2-8.04,0.39-12.06,0.59    C443.56,736.45,443,736.24,442.44,736.03z"/>
		<path class="st15" d="M455.82,739.62c0.66-0.29,12.79-1.03,12.79-1.03l1.63,1.08c-4.22,0.26-8.44,0.53-12.66,0.79    C457,740.18,456.41,739.9,455.82,739.62z"/>
		<path class="st15" d="M471.58,743.91c0.71-0.31,13.72-1.1,13.72-1.1l1.75,1.16c-4.52,0.28-9.05,0.57-13.57,0.85    C472.84,744.51,472.21,744.21,471.58,743.91z"/>
		<path class="st15" d="M492.17,749.31c0.71-0.31,13.72-1.1,13.72-1.1l1.75,1.16c-4.52,0.28-9.05,0.57-13.57,0.85    C493.43,749.91,492.8,749.61,492.17,749.31z"/>
	</g>
</g>
<path class="st12" d="M447.11,648.87c0.46,4.66,2.07,9.19,4.66,13.09"/>
<path class="st2" d="M450.59,654.44c-0.18-0.46-0.36-0.95-0.28-1.44c0.84-0.24,1.73-0.24,2.61-0.23c1.21,0.01,2.43,0.01,3.64,0.02  c0.21,0,0.43,0,0.63,0.07c0.73,0.24,0.96,1.13,1.06,1.89c0.08,0.62,0.14,1.27-0.12,1.83c-0.29,0.61-0.9,1-1.48,1.35  c-1.07,0.65-3.23,2.03-4.39,0.87C451.39,657.92,451.02,655.57,450.59,654.44z"/>
<path class="st2" d="M589.31,686.37c1.01,0.67,2.54,1.1,4.09,1.42c2.57,0.54,5.32,0.87,8.11,0.98c0.99,0.04,3.32,0.24,4.19-0.01  c1.07-0.31-0.17-1.16-0.61-1.7c-1.47-1.79-2.94-3.89-7.53-2.95C596.82,684.25,589.19,686.29,589.31,686.37z"/>
<path class="st6" d="M562.81,748.36c5.45,1.05,12.68,1.91,21.15,1.44c9.29-0.52,16.97-2.45,22.53-4.31"/>
<path class="st2" d="M354,717.75c0.36,2.27,0.83,7.88-1.15,9.61c-2.2,1.92-6.27-0.51-7.83-2.35  C338.66,717.52,353.95,717.4,354,717.75z"/>
<path class="st2" d="M462.44,714.72c3.11,0.84,6.36,1.17,9.57,0.97c0.99-0.06,2.05-0.16,2.91,0.33c0.5,0.29,0.88,0.74,1.22,1.21  c0.59,0.79,1.1,1.64,1.54,2.53c0.58,1.17,0.94,2.78-0.05,3.63c-0.64,0.56-1.58,0.53-2.43,0.47c-7.68-0.6-16.84-1.98-23.69-5.68  C452.17,713.62,459.48,713.92,462.44,714.72z"/>
<g>
	<circle class="st17" cx="772.64" cy="377.4" r="41.96"/>
	<path class="st8" d="M793.03,412.38c-2.28,0.22-5.38,3.89-7.62,4.91c-3.8,1.72-8.66,2.06-12.78,2.06   c-23.17,0-41.96-18.78-41.96-41.96c0-7.5,1.97-15.48,6.11-21.81c4.03-6.16,12.92-9.6,19.72-12.07   c-6.25,3.57-9.62,10.76-10.85,17.85c-2.29,13.22,1.92,27.4,11.05,37.24C765.85,408.43,779.68,413.68,793.03,412.38z"/>
	<path class="st18" d="M806.27,383.65c0,10-4.5,19.3-6.89,28.85c6.04-3.5,10.19-9.7,12.34-16.34c2.15-6.64,2.45-13.74,2.17-20.72   c-0.15-3.64-0.46-7.28-1.32-10.82c-3.42-13.98-15.82-24.91-29.86-28.09c-4.17-0.95-8.68-1.25-12.62,0.43   c-0.58,0.25-1.17,0.56-1.51,1.09c-0.64,1-0.11,2.4,0.83,3.13c3.7,2.85,10.28,3.11,14.56,5.38c4.45,2.36,8.46,5.53,11.79,9.3   C802.5,363.49,806.27,373.46,806.27,383.65z"/>
	<circle class="st19" cx="772.64" cy="377.4" r="41.96"/>
	<path class="st20" d="M492.2,339.36c-0.57-12.27-0.96-24.67,1.28-36.75c2.24-12.08,7.32-23.96,16.26-32.39   c8.53-8.04,20.14-12.62,27.47-21.77c2.79-3.48,4.83-7.48,7.23-11.23c6.75-10.57,16.46-19.2,27.66-24.79   c4.93-2.46,10.29-4.91,15.64-5.9c7.01-1.29,13.99-0.85,20.89-3.14c11.33-3.77,20.44-12.47,31.59-16.74   c17.1-6.55,36.32-1.83,53.65,4.1c10.68,3.65,21.35,7.83,30.42,14.56c11.03,8.19,17.19,16.9,21.61,23.23   c12.21,17.52,16.78,33.77,20.28,46.64c5.81,21.39,6.41,38.54,6.7,48.65c0.14,4.99,0.12,9.99-0.06,14.98   c-0.07,1.85,0.36,4.93-0.34,6.63c-0.64,1.55-3.05,2.09-4.56,2.07c-0.69-0.01-1.4-0.11-1.99-0.47c-1.16-0.7-1.59-2.16-1.76-3.43   c-0.19-1.36-0.54-2.42-1.1-3.72c-5.94-13.95-9.75-22.9-19.19-28.57c-2.07-1.24-12.68-7.6-22.89-3.9   c-8.94,3.24-14.41,11.96-19.39,27.34c-2.55,7.88-4.57,18.25-9.85,24.87c-5.79,7.26-16.67,12.61-24.19,18.04   c-4.42,3.19-6.65,4.87-8.41,7.37c-4.65,6.61-4.02,13.35-4.54,21.8c-0.91,14.77-3.18,27.54-14.57,37.48   c-11.72,10.25-26.41,17.11-41.84,19.33c-20.11,2.89-41.26-2.15-57.9-13.81"/>
	<path class="st8" d="M598.18,463.67c-11.71,1.69-23.78,0.68-35.1-2.76c-6.32-1.92-24.51-8.46-21.57-17.96   c0.61-1.98,2.2-3.48,3.78-4.82c12.96-10.9,29.57-16.24,45.6-21.72c10.48-3.58,21.4-7.66,28.57-16.1   c8.39-9.89,10.22-24.16,18.85-33.84c7.09-7.95,17.94-11.82,24.89-19.9c6.93-8.05,9.07-19.2,15.03-27.99   c9.66-14.27,16.13-13.77,22.7-24.4c4.43-7.16,8.73-18.85,6.24-37.98c3,6.37,8.32,15.36,17.8,22.78c7.2,5.63,9.29,4.47,16.93,10.67   c12.4,10.06,18.37,22.36,19.92,25.82c2.31,5.15,4.19,10.46,6.01,15.8c1.06,3.13,5.75,11.74,5.03,14.8   c-0.62,2.64-1.73,3.39-4.96,2.21c-3.88-1.43-3.47-5.1-4.86-8.37c-5.94-13.95-9.75-22.9-19.19-28.57c-2.07-1.24-12.68-7.6-22.89-3.9   c-8.94,3.24-14.41,11.96-19.39,27.34c-2.55,7.88-4.57,18.25-9.85,24.87c-5.79,7.26-16.67,12.61-24.19,18.04   c-4.42,3.19-6.65,4.87-8.41,7.37c-4.65,6.61-4.02,13.35-4.54,21.8c-0.91,14.77-3.18,27.54-14.57,37.48   C628.29,454.58,613.6,461.45,598.18,463.67z"/>
	<path class="st18" d="M608.63,220.06c11.33-3.77,20.44-12.47,31.59-16.74c17.1-6.55,36.32-1.83,53.65,4.1   c10.68,3.65,21.35,7.83,30.42,14.56c11.03,8.19,17.19,16.9,21.61,23.23c6.94,9.96,12.21,20.89,16.07,32.38   c2.43,7.24,2.9,21.37,7.95,26.82c-2.3-17.37-5.93-35.18-11.92-51.68c-6.09-16.75-15.51-32.69-29.39-43.86   c-7.56-6.09-16.26-10.62-25.19-14.44c-8.06-3.44-16.39-6.34-25.01-7.93c-14.04-2.58-28.73-1.58-42.29,2.88   c-12.27,4.04-23.58,10.83-36.12,13.93c-5.83,1.44-11.96,1.55-17.73,3.06c-5.9,1.54-11.22,5.1-16.3,8.34   c-7.52,4.8-15.25,9.79-20.31,17.13c-3.42,4.96-5.43,10.73-8.32,16.02c-3.21,5.87-7.51,11.14-12.62,15.45   c-4.29,3.62-9.12,6.56-13.42,10.17c-4.3,3.61-8.15,8.1-9.58,13.52c11.28-10.1,28.11-12.99,37.92-24.52   c3.79-4.46,6.23-9.9,9.68-14.62c6.5-8.91,16.14-14.67,26.15-18.87c5.12-2.15,10.43-4.04,15.78-5.59   C596.92,221.78,602.89,221.97,608.63,220.06z"/>
	<path class="st19" d="M492.68,306.79c1.16-5.73,3.51-14.04,8.76-22.72c9.34-15.46,16.49-13.29,30.24-30.53   c10.17-12.75,11.12-20.04,23.87-30.52c5.22-4.29,9.74-6.92,11.35-7.83c15.93-8.99,25.88-6.93,41.74-11.8   c18.98-5.83,15.5-10.58,31.59-16.74c17.1-6.55,36.32-1.83,53.65,4.1c10.68,3.65,21.35,7.83,30.42,14.56   c11.03,8.19,17.19,16.9,21.61,23.23c12.21,17.52,16.78,33.77,20.28,46.64c5.81,21.39,6.41,38.54,6.7,48.65   c0.14,4.99,0.12,9.99-0.06,14.98c-0.07,1.85,0.36,4.93-0.34,6.63c-0.64,1.55-3.05,2.09-4.56,2.07c-0.69-0.01-1.4-0.11-1.99-0.47   c-1.16-0.7-1.59-2.16-1.76-3.43c-0.19-1.36-0.54-2.42-1.1-3.72c-5.94-13.95-9.75-22.9-19.19-28.57c-2.07-1.24-12.68-7.6-22.89-3.9   c-8.94,3.24-14.41,11.96-19.39,27.34c-2.55,7.88-4.57,18.25-9.85,24.87c-5.79,7.26-16.67,12.61-24.19,18.04   c-4.42,3.19-6.65,4.87-8.41,7.37c-4.65,6.61-4.02,13.35-4.54,21.8c-0.39,6.32-1.53,15.38-5.03,26.44"/>
	<g>
		<path class="st2" d="M702.96,320c1.93-5.55,3.53-11.17,4.6-16.9c1.09-5.73,1.62-11.55,1.66-17.41c-0.06-2.92-0.07-5.87-0.39-8.8    c-0.25-2.94-0.63-5.88-1.15-8.82c-1.04-5.87-2.57-11.71-4.45-17.57l0-0.01c-0.21-0.66,0.15-1.36,0.81-1.58    c0.53-0.17,1.1,0.04,1.41,0.47c3.65,5.18,6.5,10.95,8.59,17.03c1.08,3.03,1.87,6.16,2.56,9.32c0.65,3.17,1.08,6.39,1.35,9.63    c0.44,6.48,0.2,13.05-1,19.47c-1.16,6.42-3.12,12.7-5.98,18.53c-1.06,2.16-3.66,3.05-5.82,1.99c-2-0.98-2.91-3.28-2.19-5.33    L702.96,320z"/>
	</g>
	<path class="st17" d="M684.67,364.15c-4.01-4.84-9.94-11.41-17.89-18.31c-30.13-26.16-62.37-33.71-83-38.29   c-15.12-3.58-31.27-4.68-46.74-4.78c-23.17-0.15-57.5,0.86-68.01,26.13c-0.14,0.34-0.28,0.68-0.41,1.03   c-0.99,2.63-1.64,5.37-2.13,8.13c-0.61,3.45-0.97,6.96-0.86,10.46c0.06,1.97,0.52,5.48,3.03,5.91c1.61,0.28,3.71-1.41,5.31-1.8   c5.78-1.4,11.78-2.22,17.66-3.02c21.81-2.98,38.76-2.54,44.48-2.33c20.62,0.78,51.51,1.95,83.99,19.2   c15.61,8.28,26.75,17.71,33.42,24.02"/>
	<path class="st8" d="M666.78,345.84c-8-6.94-16.62-14.03-26.54-17.67c2.34,2.76,4.68,5.53,7.02,8.29c2.24,2.65,4.6,5.57,4.73,9.04   c0.13,3.37-1.87,6.4-3.48,9.36c-1.61,2.96-2.6,9.6-5.45,11.18c-3.92,2.17-9.72-2.28-12.68-4.33c-4.36-3.03-9.07-5.56-13.99-7.54   c-2.27-0.91-4.71-1.72-7.13-1.36c-2.42,0.36-4.79,2.24-4.89,4.68c17.17,6.66,32.82,17.21,45.42,30.64c0.4,0.42,0.82,0.87,1.39,1.01   c0.8,0.2,1.6-0.29,2.28-0.75c4.98-3.34,9.97-6.69,14.95-10.03c3.73-2.5,16.6-9.94,15.48-15.16c-0.5-2.33-5.37-6.07-7.01-7.77   C673.65,352.08,670.29,348.88,666.78,345.84z"/>
	<path class="st9" d="M443.29,386.81c-6.32-7.25-13.92-13.39-22.35-18.04c-2.49-1.38-5.3-2.66-8.09-2.08   c-4.19,0.86-6.45,5.48-7.18,9.7c-1.69,9.75,1.4,19.59,2.79,29.39c1.68,11.74,0.92,23.72,2.49,35.48   c1.32,9.82,4.61,21.13,12.17,28.05c8.04,7.35,22.51,2.52,31.1-1.77c10.24-5.12,19.63-13.02,23.81-23.68"/>
	<path class="st9" d="M466.33,365.84c-4.9,5.46-22.06,25.91-19.56,53.08c0.63,6.88,2.4,12.84,4.43,17.74   c-1.77,0.81-19.06,9.09-22.04,27c-2.05,12.28,3.79,22.18,5.48,25.04c3.09,5.24,6.01,7.45,16.06,16.03   c14.63,12.49,22.01,18.65,25.54,22.45c6.4,6.88,17.59,20.43,26.87,26.64c2.18,1.46,4.21,2.48,4.5,2.63   c6.1,3.05,11.43,3.77,14.02,4.12c16.07,2.17,32.35-4.17,32.35-4.17c11.81-4.6,19.85-11.52,24.46-16.24   c9.6-2.17,17.44-4.74,23.15-6.85c22.03-8.15,28.23-15.33,30.46-18.2c1.81-2.33,2.93-6.19,5.2-8.02c2.98-2.41,9.52-2.74,13.19-3.66   c11.24-2.83,22.79-5.8,32.16-12.63c15.94-11.61,22.59-32.09,25.74-51.56c3.15-19.47,3.88-39.73,11.97-57.72   c4.08-9.06,10.09-17.92,9.67-27.85c-6.69-3.25-14.66-3.01-21.8-0.91c-7.14,2.1-13.63,5.91-20.04,9.69   c-14.14,8.33-28.45,16.79-39.94,28.51c-7.14-7.64-16.24-13.13-25.21-18.51c-14.67-8.8-29.63-17.73-46.28-21.65   c-9.71-2.29-16.77-2.8-41.99-2.61c-17.23,0.13-39.71,0.51-66.28,1.5"/>
	<path class="st19" d="M472.2,358.41c-5.31,5.21-28.41,28.95-25.43,60.52c0.63,6.68,2.33,12.63,4.43,17.74   c-1.77,0.81-19.06,9.09-22.04,27c-2.05,12.28,3.79,22.18,5.48,25.04c3.09,5.24,6.01,7.45,16.06,16.03   c14.63,12.49,22.01,18.65,25.54,22.45c6.4,6.88,17.59,20.43,26.87,26.64c2.18,1.46,4.21,2.48,4.5,2.63   c6.1,3.05,11.43,3.77,14.02,4.12c16.07,2.17,32.35-4.17,32.35-4.17c11.81-4.6,19.85-11.52,24.46-16.24   c9.6-2.17,17.44-4.74,23.15-6.85c22.03-8.15,28.23-15.33,30.46-18.19c2.16-2.78,3.57-5.36,4.43-7.11"/>
	<circle class="st21" cx="475.59" cy="411.19" r="35.28"/>
	<path class="st8" d="M503.9,430.17c-1.67,1.1-2.61,4.45-3.81,6.09c-1.69,2.31-4.31,4.01-6.76,5.44   c-5.37,3.12-11.52,4.77-17.73,4.77c-19.48,0-35.28-15.79-35.28-35.28c0-9.77,4.25-19.73,11.93-25.95   c-7.1,12.57-4.44,29.84,6.1,39.7c9.21,8.61,22.96,11.15,35.37,8.9C497.29,433.2,500.86,432.16,503.9,430.17z"/>
	<circle class="st22" cx="475.59" cy="411.19" r="35.28"/>
	<circle class="st2" cx="476.93" cy="405.25" r="11.82"/>
	<circle class="st21" cx="487.23" cy="401.98" r="4.61"/>
	<path class="st9" d="M520.36,454.9c-1.08-1.84-2.16-3.69-3.24-5.53c-1.54-2.63-3.11-5.31-3.74-8.29c-0.67-3.12-0.27-6.36-0.31-9.55   s-0.64-6.6-2.86-8.9c-0.47-0.49-1.04-0.93-1.72-1.01c-0.77-0.09-1.51,0.29-2.12,0.77c-2.36,1.88-2.94,5.02-4.79,7.27   c-2.09,2.54-4.94,4.35-8.15,5.09c-5.44,1.25-11.1-0.04-16.53-1.33c-3.54-0.84-7.09-1.68-10.63-2.52c-2.25-0.53-4.52-1.07-6.83-1.24   c-10.75-0.78-21.21,7.41-23.79,17.88c-2.58,10.47,2.42,22.14,11.34,28.19c3.96,2.69,8.53,4.34,13.14,5.61   c14.4,3.96,30.5,4.2,43.59-2.98"/>
	<g>
		<path class="st2" d="M504.48,423.29c0.37,1.95,0.08,4.12-0.77,6.03c-0.85,1.93-2.17,3.62-3.75,5.03    c-1.57,1.44-3.46,2.53-5.55,3.31c-2.04,0.75-4.14,1.11-6.22,1.31c-2.08,0.16-4.13,0.1-6.08-0.14c-1.95-0.26-3.82-0.65-5.62-1.06    l-10.65-2.47c-1.79-0.42-3.47-0.82-5.01-1.04c-0.77-0.11-1.52-0.21-2.22-0.19l-1.06-0.02l-1.06,0.09    c-0.36,0.01-0.71,0.07-1.06,0.15c-0.35,0.07-0.71,0.12-1.06,0.2c-0.69,0.22-1.41,0.35-2.08,0.65c-1.39,0.47-2.69,1.21-3.94,2.01    c-2.47,1.67-4.64,3.86-6.14,6.4c-1.57,2.52-2.4,5.3-2.65,8.26c-0.39,5.9,1.9,12.17,6,16.67c2.05,2.27,4.45,4.01,7.34,5.42    c2.86,1.41,6.08,2.44,9.45,3.22c3.35,0.75,6.71,1.38,10.06,2.03c3.36,0.68,6.76,1.09,10.2,1.29c6.87,0.36,13.86-0.4,20.74-2.73    c0.41-0.14,0.85,0.08,0.99,0.48c0.11,0.32,0,0.66-0.25,0.87c-5.92,4.7-13.45,7.46-21.1,8.56c-3.84,0.58-7.74,0.7-11.61,0.55    c-3.88-0.18-7.7-0.93-11.39-2.02c-1.85-0.51-3.69-1.08-5.55-1.75c-1.86-0.65-3.73-1.4-5.57-2.3c-3.66-1.76-7.28-4.36-10.09-7.52    c-2.82-3.16-5.05-6.83-6.47-10.82c-1.47-3.97-2.08-8.29-1.82-12.61c0.34-4.3,1.66-8.69,4-12.33c2.26-3.7,5.36-6.79,8.95-9.15    c1.82-1.14,3.73-2.18,5.8-2.88c1.01-0.41,2.09-0.65,3.14-0.94c0.54-0.12,1.08-0.2,1.63-0.3c0.54-0.1,1.09-0.18,1.64-0.21    l1.66-0.12l1.67,0.04c1.13,0.01,2.19,0.16,3.22,0.32c2.06,0.33,3.92,0.81,5.67,1.23l10.61,2.57c1.75,0.43,3.43,0.83,5.07,1.2    c1.63,0.39,3.21,0.74,4.78,0.98c1.55,0.23,3.11,0.31,4.61,0.16c1.44-0.13,2.93-0.54,4.33-1.21c1.41-0.66,2.71-1.6,3.74-2.81    c1.09-1.17,1.78-2.67,2.1-4.35l0.01-0.04c0.07-0.38,0.44-0.63,0.82-0.56C504.22,422.79,504.43,423.02,504.48,423.29z"/>
	</g>
	<g>
		<path class="st2" d="M497.78,469.95c0.47-1.36,1.79-2.38,3.2-2.82c0.71-0.24,1.47-0.35,2.25-0.32c0.75,0.01,1.49,0.14,2.19,0.33    c2.8,0.79,4.92,2.38,6.67,3.02c0.88,0.34,1.54,0.44,2.43,0.48c0.84,0.04,1.93-0.04,2.85-0.16c0.93-0.13,1.8-0.36,2.5-0.65    c0.7-0.3,1.17-0.66,1.46-0.99c0.26-0.35,0.41-0.66,0.5-1.19c0.08-0.51,0.06-1.23-0.12-2.02c-0.18-0.79-0.44-1.63-0.86-2.47    c-0.38-0.89-0.89-1.73-1.42-2.57c-2.19-3.34-5.34-6.19-9.39-8.37l-0.04-0.02c-0.61-0.33-0.85-1.1-0.52-1.71    c0.22-0.41,0.65-0.65,1.08-0.67c5.23-0.12,10.52,2.42,14.22,6.51c0.94,1.02,1.77,2.15,2.49,3.36c0.72,1.23,1.37,2.61,1.76,4.12    c0.4,1.51,0.62,3.2,0.31,5.03c-0.26,1.82-1.17,3.74-2.53,5.13c-0.67,0.69-1.42,1.27-2.19,1.72c-0.78,0.44-1.56,0.76-2.33,1.02    c-1.54,0.5-3.03,0.67-4.47,0.69c-1.45,0.02-2.75-0.09-4.25-0.39c-1.46-0.29-3.08-0.97-4.27-1.78c-2.4-1.64-3.79-3.42-5.4-4.47    c-0.4-0.27-0.8-0.49-1.22-0.67c-0.39-0.17-0.83-0.29-1.29-0.34c-0.92-0.08-1.9,0.09-2.7,0.76l-0.04,0.03    c-0.23,0.19-0.58,0.16-0.77-0.07C497.75,470.33,497.72,470.13,497.78,469.95z"/>
	</g>
	<g>
		<path class="st2" d="M629.66,432.82c1.48-7.49,4.03-14.77,7.3-21.72c3.26-6.97,7.34-13.57,12.04-19.71    c4.7-6.15,9.98-11.83,15.69-17.1c5.76-5.24,11.88-9.9,18.29-14.15c6.42-4.24,13.08-8.11,20.26-11.34    c3.61-1.6,7.35-3.02,11.46-4.01c2.06-0.49,4.25-0.85,6.68-0.9l0.92-0.01l0.98,0.07c0.33,0.03,0.65,0.05,0.98,0.09l1.05,0.2    c1.38,0.25,2.94,0.84,4.41,1.76c0.37,0.24,0.72,0.54,1.07,0.83c0.35,0.29,0.71,0.59,0.96,0.91c0.28,0.32,0.54,0.65,0.8,0.98    c0.27,0.34,0.42,0.61,0.63,0.93c0.76,1.22,1.39,2.6,1.75,4c0.37,1.4,0.52,2.79,0.54,4.1c0,1.3-0.12,2.53-0.31,3.69    c-0.82,4.58-2.39,8.24-3.88,11.81c-3.08,7.04-6.23,13.6-8.89,20.35c-2.77,6.89-5.24,13.59-7.02,20.54    c-0.9,3.46-1.65,6.97-2.24,10.5c-0.59,3.54-1.01,7.03-1.3,10.68c-0.3,3.61-0.53,7.63-1.35,11.65c-0.8,4.02-1.95,7.82-3.35,11.54    c-1.41,3.72-3.09,7.32-5.02,10.78c-1.91,3.46-4.13,6.78-6.38,9.88c-4.58,6.26-9.6,12.11-15.26,17.51    c-5.65,5.37-11.99,10.28-19.57,13.73c-3.78,1.71-8.07,2.77-12.47,2.76c-1.09,0.03-2.21-0.12-3.3-0.19    c-1.09-0.2-2.19-0.32-3.25-0.62c-2.13-0.53-4.23-1.32-6.12-2.38c-3.79-2.1-6.85-5.03-9.32-8.18c-2.48-3.18-4.4-6.63-5.9-10.19    c-0.4-0.95,0.04-2.04,0.99-2.44c0.83-0.35,1.77-0.05,2.26,0.67l0.01,0.01c2.04,3,4.33,5.76,6.86,8.12    c2.5,2.38,5.37,4.22,8.29,5.38c1.46,0.59,2.95,0.92,4.48,1.1c0.75,0.12,1.53,0.08,2.28,0.14c0.77-0.07,1.53-0.04,2.29-0.18    c0.76-0.11,1.52-0.22,2.28-0.41c0.76-0.13,1.52-0.37,2.27-0.6c0.76-0.19,1.52-0.51,2.27-0.74c0.75-0.31,1.51-0.59,2.27-0.91    c3.02-1.32,5.95-3.1,8.75-5.15c2.8-2.04,5.48-4.35,8.03-6.82c5.11-4.93,9.81-10.47,13.98-16.27c2.11-2.95,4.02-5.86,5.7-8.94    c1.68-3.06,3.14-6.24,4.35-9.51c1.21-3.26,2.2-6.63,2.82-9.94c0.64-3.29,0.82-6.75,1.09-10.57c0.26-3.79,0.69-7.72,1.29-11.53    c0.6-3.83,1.38-7.63,2.32-11.39c1.84-7.53,4.49-14.87,7.21-21.84c2.75-7.15,6.07-14.05,8.94-20.68c1.4-3.29,2.68-6.6,3.14-9.37    c0.11-0.68,0.16-1.31,0.16-1.88c-0.01-0.55-0.08-1.02-0.18-1.43c-0.1-0.41-0.27-0.74-0.49-1.1c-0.25-0.41-0.27-0.34-0.3-0.42    c-0.15-0.11-1.11-0.41-2.4-0.36c-1.29,0.03-2.81,0.24-4.37,0.63c-3.14,0.75-6.4,1.99-9.62,3.38c-6.45,2.84-12.76,6.42-18.8,10.36    c-6.03,3.96-11.9,8.26-17.23,12.98c-5.32,4.76-10.31,9.97-14.75,15.6c-4.46,5.62-8.66,11.48-12.52,17.62    c-3.93,6.11-7.46,12.5-11.12,19l-0.01,0.01c-0.5,0.89-1.63,1.21-2.53,0.71C629.86,434.4,629.51,433.59,629.66,432.82z"/>
	</g>
	<g>
		<path class="st2" d="M698.84,386.99c-2.62,3.4-5.38,6.61-8.16,9.76c-1.41,1.55-2.78,3.16-4.17,4.75l-4.1,4.74    c-2.7,3.14-5.17,6.26-7.33,9.58c-2.17,3.29-3.96,6.77-5.64,10.48c-3.32,7.42-6.2,15.17-8.8,23.03c-2.62,7.87-4.89,15.9-7.42,24.05    c-0.16,0.53-0.73,0.83-1.26,0.67c-0.42-0.13-0.7-0.51-0.71-0.93c-0.33-8.61,0.56-17.22,2.28-25.69    c1.74-8.48,4.37-16.77,8.04-24.75c1.85-3.97,4.06-7.98,6.79-11.58c2.67-3.62,5.82-6.86,9.01-9.77c1.61-1.45,3.22-2.86,4.87-4.21    c1.63-1.37,3.28-2.7,5.02-3.97c3.45-2.56,6.93-5.07,10.53-7.38c0.37-0.24,0.87-0.13,1.11,0.24c0.19,0.29,0.16,0.66-0.04,0.92    L698.84,386.99z"/>
	</g>
	<path class="st19" d="M443.29,386.81c-6.32-7.25-13.92-13.39-22.35-18.04c-2.49-1.38-5.3-2.66-8.09-2.08   c-4.19,0.86-6.45,5.48-7.18,9.7c-1.69,9.75,1.4,19.59,2.79,29.39c1.68,11.74,0.92,23.72,2.49,35.48c1.58,11.76,6,23.89,15.53,30.95   "/>
	<circle class="st21" cx="543.41" cy="413.45" r="37.54"/>
	<path class="st8" d="M573.53,433.64c-1.78,1.17-2.77,4.74-4.05,6.48c-1.8,2.46-4.59,4.27-7.19,5.78   c-5.71,3.32-12.26,5.08-18.87,5.08c-20.73,0-37.54-16.81-37.54-37.54c0-10.4,4.52-21,12.69-27.61   c-7.55,13.37-4.73,31.75,6.49,42.24c9.8,9.16,24.43,11.87,37.63,9.47C566.5,436.86,570.3,435.76,573.53,433.64z"/>
	<circle class="st23" cx="543.41" cy="413.45" r="37.54"/>
	<circle class="st2" cx="553.77" cy="408.55" r="12.58"/>
	<circle class="st21" cx="564.73" cy="405.07" r="4.9"/>
	<g>
		<path class="st2" d="M680.36,367.72c-3.24-4.54-6.78-8.89-10.61-13c-1.91-2.05-3.88-4.06-5.92-6l-3.13-2.83l-1.57-1.42    c-0.53-0.47-1.08-0.9-1.62-1.35c-8.63-7.23-18.2-13.44-28.43-18.39l-1.91-0.95l-1.94-0.88c-1.3-0.58-2.58-1.2-3.9-1.74    c-2.63-1.1-5.28-2.15-7.96-3.12c-5.36-1.95-10.81-3.71-16.34-5.26c-11.09-3.02-22.33-5.56-33.68-6.85    c-11.35-1.33-22.78-1.73-34.08-1.27c-2.83,0.11-5.62,0.36-8.51,0.55c-2.86,0.22-5.72,0.38-8.54,0.63    c-5.65,0.41-11.21,1.08-16.39,2.7c-2.59,0.8-5.06,1.9-7.36,3.29c-1.13,0.73-2.25,1.47-3.31,2.31c-0.56,0.38-1.03,0.87-1.53,1.33    l-1.48,1.37c-1.91,1.9-3.65,3.98-5.14,6.23c-1.5,2.24-2.77,4.66-3.84,7.16c-4.27,10.03-5.31,21.47-4.16,32.32l0,0l-6.83-3.31    c7.22-5.09,15.13-9.26,23.48-12.25c2.11-0.73,4.16-1.43,6.38-2.02c2.19-0.58,4.42-1.08,6.65-1.43c4.46-0.73,8.89-0.98,13.24-1.09    c8.7-0.16,17.17,0.22,25.65,0.53c8.48,0.31,17.09,0.79,25.67,1.8c17.15,2.02,34.23,6.35,50.1,13.57    c15.9,7.12,30.51,17.04,43.16,28.98c1.74,1.64,1.82,4.39,0.18,6.13s-4.39,1.82-6.13,0.18l-0.01,0    c-11.96-11.29-25.77-20.67-40.78-27.38c-14.98-6.81-31.1-10.92-47.55-12.86c-8.24-0.97-16.54-1.44-24.98-1.74    c-8.44-0.3-16.89-0.68-25.12-0.52c-4.11,0.11-8.15,0.34-12.05,0.98c-3.9,0.6-7.64,1.68-11.48,3.05    c-7.59,2.71-14.79,6.51-21.41,11.17l-0.22,0.15c-1.9,1.34-4.51,0.88-5.85-1.01c-0.52-0.74-0.77-1.6-0.77-2.45l0,0    c0.02-3.05,0.15-6.08,0.43-9.09c0.27-3.01,0.75-6,1.29-8.96c1.13-5.93,2.95-11.77,5.6-17.27c2.66-5.48,6.24-10.6,10.74-14.8    c1.17-1,2.28-2.07,3.51-2.98c1.21-0.95,2.5-1.79,3.81-2.61c2.63-1.62,5.46-2.9,8.32-3.96c5.76-2.11,11.72-3.1,17.54-3.83    c2.92-0.34,5.82-0.59,8.71-0.79c2.86-0.22,5.84-0.37,8.77-0.42c11.78-0.24,23.47,1.07,34.95,3.1c5.74,1.01,11.44,2.24,17.1,3.57    c2.84,0.64,5.64,1.36,8.45,2.03c2.82,0.66,5.63,1.36,8.45,2.08c11.27,2.81,22.43,6.33,33.22,10.93    c21.64,9.12,41.31,23.13,57.74,40.53l0.03,0.03c2.13,2.25,2.03,5.81-0.23,7.93c-2.25,2.13-5.81,2.03-7.93-0.23    C680.68,368.13,680.5,367.91,680.36,367.72z"/>
	</g>
	<g>
		<path class="st2" d="M657.63,433.14c4.89-6.21,11-11.35,17.83-14.99c3.42-1.8,7-3.27,10.67-4.3c3.67-1.04,7.43-1.69,11.19-1.95    c0.86-0.06,1.6,0.59,1.66,1.45c0.05,0.79-0.49,1.49-1.26,1.64l-0.01,0c-3.49,0.69-6.88,1.73-10.1,3.11    c-3.23,1.36-6.26,3.1-9.09,5.08c-5.63,3.99-10.33,9.14-13.79,14.92c-1.24,2.06-3.91,2.73-5.97,1.49s-2.73-3.91-1.49-5.97    c0.09-0.15,0.19-0.3,0.3-0.44L657.63,433.14z"/>
	</g>
	<path class="st9" d="M467.38,365.45c-3.22-4.83-12.68-17.62-30.52-24.75c-17.41-6.95-32.7-4.46-38.42-3.24   c8.49-5.25,18.03-8.55,27.9-10.05c13.5-2.06,23.93-0.4,29.87,0.68c23.13,4.21,40.04,15.82,49.47,23.62   c0.22-6.76-0.35-16.49-4.12-27.35c-7.41-21.33-22.49-33.37-28.96-37.95c14.35,4.08,36.31,12.64,56.35,31.56   c6.36,6.01,11.52,12.11,15.69,17.82c2.97-2.67,6.93-6.98,9.85-13.21c6.51-13.91,3.06-27.22,1.85-31.22   c6.37,7.24,19.49,24.37,19.84,47.83c0.07,5-0.44,9.59-1.26,13.69c3.44-2.88,7.78-5.93,13.11-8.57c15.41-7.62,30.15-7.31,37.95-6.52   c-4.36,1.88-13.71,6.69-19.96,17.09c-2.3,3.83-3.63,7.51-4.43,10.56"/>
	<path class="st18" d="M576.17,339.2c0.06,4.37-0.13,8.7-1.54,12.84c-3.58-13.17-8.1-26.09-13.51-38.62   c-1.98,5.22-4.33,10.3-7.05,15.18c-2.98,5.36-6.83,10.82-12.66,12.74c-0.56,0.19-1.18,0.33-1.74,0.14   c-0.64-0.21-1.06-0.81-1.44-1.37c-10.65-15.5-26.31-27.5-44.05-33.74c2.13,3.75,4.27,7.49,6.4,11.24   c2.27,3.98,4.56,8.03,5.64,12.48c0.84,3.46,0.92,7.06,0.9,10.62c-0.03,4.83-0.25,9.67-0.66,14.48   c-19.05-9.88-44.68-19.64-66.56-17.7c-4.15,0.37-8.58,1.56-12.74,0.74c-3.92-0.78-7.33-1.93-11.46-2.13   c-4.34-0.22-13.31-1.08-17.26,1.37c8.49-5.25,18.03-8.55,27.9-10.05c13.5-2.06,23.93-0.4,29.87,0.68   c23.13,4.21,40.04,15.82,49.47,23.62c0.22-6.76-0.35-16.49-4.12-27.35c-7.41-21.33-22.49-33.37-28.96-37.95   c14.35,4.08,36.31,12.64,56.35,31.56c6.36,6.01,11.52,12.11,15.69,17.82c2.97-2.67,6.93-6.98,9.85-13.21   c6.51-13.91,3.06-27.22,1.85-31.22C562.7,298.6,575.82,315.74,576.17,339.2z"/>
	<g>
		<path class="st2" d="M462.65,368.13c-3.01-5.32-6.84-10.22-11.35-14.45c-4.51-4.22-9.72-7.74-15.39-10.38    c-11.34-5.27-24.56-6.84-37.22-4.68l0,0c-0.65,0.11-1.27-0.33-1.38-0.98c-0.08-0.47,0.12-0.91,0.48-1.17l0.02-0.02    c7.98-5.72,17.36-9.49,27.07-11.5c4.86-0.98,9.82-1.53,14.8-1.67c4.98-0.14,10,0.25,14.9,0.94c9.82,1.31,19.51,4.27,28.57,8.37    c9.06,4.16,17.5,9.59,25.19,15.88l-6.87,3.1c0.19-6.02-0.21-12.05-1.26-18c-0.52-2.98-1.18-5.94-2.06-8.85    c-0.86-2.92-1.87-5.81-3.1-8.62c-2.43-5.64-5.64-11.01-9.53-15.88c-3.91-4.86-8.5-9.21-13.6-12.86l-0.01,0    c-0.53-0.38-0.65-1.12-0.27-1.64c0.3-0.41,0.82-0.58,1.28-0.45c7.19,2.04,14.24,4.56,21.17,7.43c6.93,2.87,13.7,6.23,20.2,10.13    c1.64,0.96,3.2,2.03,4.8,3.05c1.56,1.08,3.12,2.16,4.66,3.28c3.03,2.29,5.98,4.71,8.83,7.25c5.66,5.12,10.9,10.74,15.46,16.89    l-6.25-0.65c2.69-2.47,5.03-5.3,6.88-8.41c1.87-3.1,3.22-6.48,4.11-9.97c0.89-3.5,1.23-7.15,1.1-10.81    c-0.11-3.66-0.69-7.34-1.72-10.85l0,0l-0.01-0.05c-0.67-2.3,0.66-4.71,2.96-5.37c1.67-0.48,3.39,0.08,4.47,1.3    c7.66,8.72,13.89,18.9,17.5,30.15c1.81,5.61,2.95,11.48,3.3,17.4c0.37,5.92-0.06,11.89-1.22,17.69l-7.04-4.17    c3.72-3.11,7.77-5.86,12.06-8.15c4.31-2.26,8.83-4.12,13.49-5.47c4.66-1.37,9.46-2.19,14.28-2.62c4.82-0.38,9.66-0.35,14.46,0.15    l0.01,0c2.37,0.22,4.11,2.31,3.89,4.68c-0.13,1.39-0.9,2.57-2,3.25l-0.58,0.36c-2.63,1.63-5.19,3.23-7.62,5.02    c-1.2,0.91-2.41,1.8-3.53,2.81c-1.16,0.96-2.23,2.01-3.31,3.07c-2.1,2.16-4.07,4.51-5.82,7.08c-1.76,2.58-3.3,5.36-4.78,8.33    l-0.02,0.04c-0.48,0.96-1.65,1.35-2.61,0.87c-0.69-0.34-1.08-1.04-1.07-1.75c0.03-3.61,0.77-7.24,2.03-10.71    c0.62-1.74,1.39-3.44,2.3-5.06c0.86-1.66,1.92-3.21,3.03-4.72c2.26-3,4.99-5.65,8.01-7.85c3.02-2.21,6.36-3.97,9.91-5.08l1.3,8.29    l-0.01,0c-4.28-0.44-8.59-0.47-12.86-0.13c-4.26,0.38-8.5,1.1-12.59,2.31c-4.09,1.19-8.05,2.81-11.82,4.78    c-3.76,2-7.3,4.41-10.57,7.14c-1.84,1.54-4.58,1.3-6.11-0.54c-0.87-1.04-1.17-2.39-0.93-3.63c1.01-5.1,1.39-10.3,1.07-15.47    c-0.31-5.17-1.3-10.3-2.89-15.26c-3.18-9.93-8.77-19.13-15.76-27.08l7.41-4.12l0,0c1.29,4.24,2.03,8.61,2.21,13.04    c0.15,4.43-0.29,8.91-1.4,13.26c-1.09,4.35-2.89,8.52-5.25,12.33c-2.35,3.81-5.28,7.24-8.59,10.19l-0.05,0.04    c-1.73,1.54-4.38,1.39-5.93-0.34c-0.1-0.11-0.19-0.23-0.28-0.34c-4.18-5.83-8.71-11.44-13.71-16.63    c-5.03-5.16-10.4-10.04-16.2-14.43c-5.8-4.39-11.95-8.42-18.51-11.7c-6.53-3.36-13.45-5.95-20.52-7.98l1-2.1    c5.28,3.7,10.21,7.92,14.71,12.61c4.51,4.67,8.55,9.88,11.93,15.55c3.37,5.68,6.01,11.86,7.72,18.33    c1.7,6.47,2.43,13.21,2.23,19.9l0,0.02c-0.07,2.31-2,4.13-4.31,4.06c-0.98-0.03-1.87-0.39-2.56-0.98    c-7.11-5.96-14.95-11.03-23.27-15.05c-4.15-2.03-8.44-3.79-12.83-5.24c-4.4-1.47-8.87-2.53-13.46-3.47    c-9.11-1.76-18.41-2.17-27.67-0.99c-9.24,1.11-18.31,3.87-26.69,8.27l-0.88-2.17l0,0c6.47-1.66,13.19-2.34,19.93-2.06    c6.73,0.28,13.49,1.59,19.91,3.96c6.42,2.37,12.49,5.79,17.91,10.1c5.41,4.31,10.17,9.47,14.09,15.25l0.01,0.01    c1.34,1.99,0.82,4.69-1.16,6.03c-1.99,1.34-4.69,0.82-6.03-1.16C462.77,368.34,462.7,368.23,462.65,368.13z"/>
	</g>
	<g>
		<path class="st2" d="M551.54,334.78c-1.53,1.66-3.06,3.31-4.57,5c-1.5,1.7-2.99,3.44-4.34,5.3c-0.68,0.93-1.33,1.88-1.95,2.86    c-0.65,0.96-1.26,1.96-1.84,2.97c-1.16,2.03-2.24,4.13-3.23,6.31l-0.01,0.01c-0.38,0.83-1.36,1.2-2.2,0.83    c-0.68-0.31-1.05-1.01-0.96-1.71c0.31-2.51,0.82-5.01,1.53-7.47c0.7-2.46,1.59-4.89,2.68-7.24c1.08-2.35,2.28-4.67,3.72-6.85    c1.44-2.18,3.08-4.23,4.94-6.05c1.71-1.68,4.46-1.65,6.14,0.06c1.63,1.66,1.65,4.29,0.1,5.98L551.54,334.78z"/>
	</g>
</g>
<g>
	<g>
		<path class="st5" d="M278.42,773.23c33.25-5.61,66.49-11.22,99.74-16.84c0.36-3.9,0.72-7.8,1.08-11.71    c-30.32-9.91-60.64-19.82-90.96-29.73"/>
		<path class="st15" d="M280.69,758.01c32.85-4.44,65.7-8.89,98.54-13.33c-30.32-9.91-60.64-19.82-90.96-29.73"/>
		<path class="st24" d="M278.42,773.23c33.25-5.61,66.49-11.22,99.74-16.84c0.39-4.2,0.77-8.41,1.16-12.61    c-30.85-9.76-61.69-19.53-92.54-29.29"/>
		<path class="st15" d="M242.08,357.04c59.06,9.14,118.12,18.28,177.17,27.42c-2.07,92.92-4.15,185.84-6.22,278.76    c-6.1,0.93-12.21,1.85-18.31,2.78c-59.62-17.78-119.25-35.56-178.87-53.34c2.01-83.71,4.01-167.41,6.02-251.12    C228.61,360.04,235.35,358.54,242.08,357.04z"/>
		<path class="st5" d="M220.87,362.98c60.64,10.4,121.28,20.81,181.92,31.21c-2.69,90.6-5.38,181.21-8.07,271.81    c-59.62-17.78-119.25-35.56-178.87-53.34C217.53,529.43,219.2,446.21,220.87,362.98z"/>
		<path class="st24" d="M241.85,357.01c59.14,9.15,118.27,18.3,177.41,27.45c-2.07,92.92-4.15,185.84-6.22,278.76    c-6.1,0.93-12.21,1.85-18.31,2.78c-59.62-17.78-119.25-35.56-178.87-53.34c2-83.5,4-167,6-250.5    C228.52,360.44,235.19,358.72,241.85,357.01z"/>
		<path class="st15" d="M261.49,555.51c-18.59,62.51-37.17,125.02-55.76,187.52l72.69,30.19c10.02-69.47,20.04-138.95,30.07-208.42    c1.71-12.48-6.52-24.23-18.57-26.89C277.5,535.18,264.77,542.95,261.49,555.51z"/>
		<path class="st5" d="M259.12,563.15c-9.3,30.21-18.2,60.54-27.1,90.87c-1.52,5.18-3.04,10.36-4.56,15.55    c-7.09,24.15-14.17,48.3-21.26,72.45c19.68,8.6,39.37,17.19,59.06,25.79c0.7,0.31,1.35,0.37,1.94-0.07    c-0.26-15.22,4.21-31.81,6.39-46.93c2.47-17.15,4.95-34.3,7.42-51.45c4.82-33.39,9.87-66.76,14.45-100.19    c1.71-12.48-6.52-24.23-18.57-26.89c-6.18-1.36-11.27-0.08-13.31,6.47C262.08,553.55,260.6,558.35,259.12,563.15z"/>
		<path class="st24" d="M261.49,555.51c-18.59,62.51-37.17,125.02-55.76,187.52l72.69,30.19c10.02-69.47,20.04-138.95,30.07-208.42    c1.71-12.48-6.52-24.23-18.57-26.89C277.5,535.18,264.77,542.95,261.49,555.51z"/>
	</g>
	
		<ellipse transform="matrix(0.1792 -0.9838 0.9838 0.1792 -398.0048 773.9784)" class="st24" cx="264.83" cy="625.51" rx="21.63" ry="13.55"/>
	<path class="st2" d="M279.44,628.53c-0.41,1.65-1.07,3.24-1.77,4.79c-1.73,3.82-3.75,7.52-6.03,11.03   c-0.59,0.91-1.25,1.85-2.25,2.29c-6.76,2.95-6.55-17.52-6.04-20.31c1.29-7.09,5.29-16.39,12.97-18.38   c1.28,3.69,2.28,7.48,2.99,11.32c0.48,2.6,0.82,5.28,0.41,7.89C279.65,627.62,279.55,628.08,279.44,628.53z"/>
</g>
<polygon class="st8" points="299.51,637.61 310.18,560.06 315.78,642.46 "/>
<path class="st9" d="M594.12,449.02c-3.73,4.89-9.66,7.47-15.33,9.84c-2.35,0.98-5.08,2.73-7.53,3.27c-2.8,0.61-6.58-0.3-9.44-0.48  c-3.43-0.21-6.85-0.42-10.28-0.63c-1.69-0.1-3.38-0.21-5.07-0.31c-1.17-0.07-2.46,0.3-3.32-0.79c-0.54-0.68-0.45-1.66-0.3-2.52  c0.31-1.79,0.79-3.53,1.27-5.28c0.41-1.48,1.47-2.8,2.35-4.05c1.81-2.6,3.81-5.06,5.67-7.62c1.95-2.69,4.77-4.51,7.78-5.86  c4.85-2.18,10.1-3.37,15.4-3.67c6.12-0.35,12.53,0.36,18.35,2.36"/>
<g>
	<path class="st2" d="M542.06,458.67c-0.19-5.84,1.61-11.62,4.66-16.79c1.56-2.57,3.53-4.92,5.74-7.04c0.58-0.5,1.17-0.99,1.76-1.48   c0.58-0.51,1.21-0.94,1.85-1.37c0.64-0.43,1.28-0.86,1.93-1.26l2.03-1.08l1.03-0.52c0.35-0.16,0.71-0.29,1.06-0.44l2.14-0.84   l2.21-0.63c0.73-0.22,1.48-0.39,2.24-0.5c3-0.59,6.08-0.71,9.07-0.4c5.98,0.61,11.69,2.72,16.2,6.4c0.29,0.24,0.33,0.66,0.1,0.95   c-0.16,0.2-0.42,0.28-0.66,0.23l-0.03-0.01c-5.4-1.13-10.68-1.58-15.71-1.18c-1.26,0.07-2.49,0.29-3.72,0.45   c-0.61,0.13-1.21,0.26-1.82,0.37c-0.61,0.1-1.19,0.31-1.79,0.46c-1.2,0.27-2.33,0.75-3.49,1.12l-1.69,0.72   c-0.28,0.12-0.57,0.23-0.84,0.36l-0.81,0.43l-1.63,0.83l-1.55,0.97c-1.08,0.58-1.99,1.41-3.01,2.09c-1.9,1.55-3.71,3.24-5.39,5.14   c-3.29,3.83-6.13,8.31-8.49,13.28l-0.02,0.04c-0.17,0.36-0.6,0.51-0.96,0.34C542.22,459.17,542.07,458.93,542.06,458.67z"/>
</g>
<g>
	<path class="st2" d="M554.26,479.5c0.27-0.27,0.55-0.56,0.92-0.64c0.48-0.1,0.95,0.17,1.38,0.42c6.03,3.54,13.49,4.56,20.24,2.76   c-2.61,12.64-6.9,24.92-12.72,36.44c-2.29,4.52-4.44,9.58-9.42,14.17c-2.23,2.05-7.59,6.43-15.55,8.3c-1.83,0.43-4.31,1-7.57,0.87   c-7.89-0.32-13.45-4.45-15.3-5.86c-4.63-3.53-7.96-8.48-9.89-13.94c-1.85-5.21-1.66-9.45-0.52-14.89c0.12-0.6,0.26-1.2,0.51-1.75   c1.27-2.86,5.96-6.23,8.91-7.38c4.43-1.72,9.59-1.98,14.16-3.5C538.66,491.4,547.4,486.49,554.26,479.5z"/>
	<path class="st25" d="M530.36,528.53c1.78-2.37,3.58-4.76,5.88-6.63c2.3-1.87,5.19-3.18,8.14-3.02c0.65,0.04,1.32,0.14,1.92-0.11   c0.55-0.22,0.94-0.7,1.32-1.15c4.05-4.76,9.56-8.26,15.59-9.9c0.69-0.19,1.53-0.31,2.03,0.19c0.25,0.25,0.36,0.61,0.44,0.96   c1.32,5.58-1.28,11.27-4.03,16.3c-2.63,4.83-5.74,9.81-10.7,12.18c-2.17,1.04-4.56,1.5-6.92,1.93c-5.12,0.94-10.6,1.76-15.74,0.48   c-2.16-0.54-4.4-1.21-3.55-3.72C525.59,533.53,528.77,530.65,530.36,528.53z"/>
	<path class="st21" d="M544.25,504c5.39-3.71,10.16-8.29,14.12-13.49c2.83-3.72,6.4-11.8-2.49-9.43c-2.25,0.6-4.16,2.06-6.07,3.39   c-19.17,13.33-43.78,16.52-67.07,14.84c1.43,5.64,4.27,10.12,9.52,13.18c2.22,1.29,6.32,3.11,16.78,2.4   C517.41,514.3,530.6,513.39,544.25,504z"/>
	<g>
		<path class="st2" d="M464.34,492.77c4.88,0.85,9.73,1.53,14.58,1.9c2.42,0.21,4.85,0.33,7.26,0.42c1.21,0.04,2.42,0.03,3.62,0.09    c1.2,0.05,2.39,0.22,3.59,0.33c4.8,0.3,9.62,0.06,14.41-0.39c4.77-0.46,9.57-1.29,14.19-2.37c9.21-2.25,18.01-6.19,25.22-12.03    c0.91-0.72,1.76-1.5,2.63-2.27l1.24-1.21l0.71-0.7c0.2-0.19,0.5-0.47,0.95-0.76c0.45-0.29,1.12-0.61,1.89-0.72    c0.75-0.12,1.45-0.04,1.98,0.09c0.54,0.13,0.91,0.3,1.21,0.45c0.3,0.15,0.51,0.27,0.66,0.36l0.35,0.19    c0.46,0.26,0.93,0.5,1.41,0.72c0.96,0.44,1.95,0.84,2.97,1.14c4.07,1.24,8.52,1.35,12.58,0.25c2.08-0.56,4.23,0.67,4.79,2.76    c0.16,0.6,0.17,1.21,0.06,1.79l-0.01,0.03c-2.12,10.27-5.32,20.31-9.52,29.92c-1.05,2.4-2.16,4.78-3.34,7.12    c-1.12,2.23-2.23,4.6-3.62,7.01c-1.38,2.4-3.07,4.78-5.04,6.89c-1.99,2.12-4.18,3.92-6.53,5.5c-2.35,1.58-4.88,2.9-7.53,3.94    c-1.33,0.51-2.68,0.97-4.06,1.33l-1.03,0.27l-0.99,0.23c-0.68,0.15-1.39,0.29-2.12,0.4c-5.87,0.97-12.05-0.13-17.24-2.73    c-1.31-0.64-2.56-1.37-3.76-2.18c-1.21-0.8-2.29-1.65-3.42-2.62c-2.21-1.91-4.14-4.12-5.75-6.52c-3.21-4.83-5.14-10.25-5.9-15.93    c-0.29-2.14,1.22-4.11,3.36-4.4c2.14-0.29,4.11,1.22,4.4,3.36l0.01,0.05c0.6,4.44,2.21,8.88,4.68,12.54    c1.24,1.84,2.7,3.49,4.36,4.92c0.81,0.69,1.74,1.43,2.66,2.03c0.92,0.62,1.88,1.17,2.87,1.65c3.93,1.96,8.3,2.71,12.52,2.03    c0.54-0.08,1.08-0.19,1.64-0.31l0.88-0.2l0.82-0.21c1.09-0.28,2.16-0.64,3.21-1.04c2.1-0.82,4.13-1.88,6.02-3.14    c1.89-1.26,3.66-2.74,5.17-4.33c1.52-1.62,2.82-3.42,3.98-5.45c1.17-2,2.23-4.26,3.41-6.59c1.12-2.22,2.17-4.47,3.17-6.74    c3.99-9.1,7.03-18.62,9.05-28.35l4.84,4.57c-5.56,1.45-11.44,1.26-16.87-0.43c-1.36-0.41-2.69-0.95-3.98-1.55    c-0.64-0.31-1.28-0.63-1.9-0.99l-0.62-0.35c0.02,0.01,0.11,0.06,0.34,0.12c0.23,0.06,0.61,0.11,1.06,0.04    c0.45-0.07,0.84-0.26,1.03-0.38c0.19-0.13,0.25-0.19,0.23-0.17l-0.62,0.6l-1.44,1.38c-1,0.88-1.99,1.77-3.04,2.59    c-8.33,6.65-18.18,10.91-28.27,13.31c-5.07,1.15-10.1,1.97-15.23,2.43c-2.56,0.25-5.12,0.37-7.69,0.45    c-2.57,0.09-5.14-0.03-7.71-0.02c-1.29,0.02-2.58,0.03-3.86-0.09c-1.28-0.13-2.55-0.37-3.81-0.59c-2.53-0.45-5.03-1-7.51-1.64    c-4.95-1.32-9.79-2.96-14.41-5.06c-0.71-0.32-1.02-1.16-0.7-1.87C463.08,492.97,463.72,492.66,464.34,492.77z"/>
	</g>
	<path class="st26" d="M481.93,499.13c0.98,2.88,3.69,9.49,10.32,13.35c2.22,1.29,6.32,3.11,16.78,2.4   c8.38-0.58,21.57-1.48,35.22-10.87c10.83-7.45,16.69-16.63,19.49-21.85"/>
	<path class="st27" d="M521.8,538.14c0.44-1.64,3.98-13.98,15.36-18.18c3.84-1.42,7.39-1.47,9.93-1.24c1.44-1.96,3.8-4.66,7.38-6.98   c5.87-3.81,11.67-4.44,14.49-4.55"/>
</g>
<g>
	<path class="st2" d="M547.72,466.41c3.07,2.45,6.11,4.63,9.35,6.38c1.62,0.86,3.26,1.65,4.95,2.3l1.27,0.48l1.29,0.41   c0.85,0.32,1.73,0.51,2.6,0.75c3.5,0.91,7.14,1.25,10.85,1.26c3.72-0.01,7.5-0.47,11.38-1.17l0.02,0c0.61-0.11,1.19,0.29,1.3,0.9   c0.08,0.45-0.12,0.88-0.47,1.12c-3.46,2.4-7.51,3.86-11.72,4.64c-4.22,0.7-8.65,0.66-12.9-0.35c-1.06-0.24-2.12-0.53-3.14-0.9   c-1.04-0.33-2.05-0.75-3.04-1.18c-1.97-0.92-3.86-2.02-5.59-3.31c-3.46-2.58-6.38-5.84-8.31-9.6c-0.35-0.69-0.08-1.54,0.61-1.89   c0.51-0.26,1.1-0.18,1.52,0.15L547.72,466.41z"/>
</g>
<ellipse transform="matrix(0.9931 -0.1175 0.1175 0.9931 -48.2084 70.5994)" class="st28" cx="574.62" cy="444.13" rx="11.76" ry="7.46"/>
<ellipse transform="matrix(0.9931 -0.1175 0.1175 0.9931 -48.7207 56.8032)" class="st18" cx="457.36" cy="441.58" rx="11.76" ry="4.89"/>
<ellipse transform="matrix(0.9931 -0.1175 0.1175 0.9931 -49.5405 68.9347)" class="st18" cx="559.83" cy="454.6" rx="5.88" ry="3.73"/>
<path class="st29" d="M602.31,546.86"/>
<path class="st8" d="M711.55,396.72c-4.73,6.69-9.53,13.5-12.23,21.24c-1.57,4.5-2.4,9.22-3.42,13.88  c-1.93,8.86-4.56,17.57-7.85,26.02c-2.11,5.41-3.81,7.9-4.26,8.62c-0.94,1.52-4.1,6.39-10.56,12.07  c-5.46,4.79-12.19,10.7-22.86,13.32c-2.12,0.52-8.67,1.97-17.1,0.9c-4.88-0.62-8.85-1.88-11.65-2.99c-0.32,2.32-1.04,5.63-2.75,9.29  c-0.14,0.3-1.85,3.89-4.32,6.84c-7.5,8.93-22.37,12.25-28.8,13.68c-1.55,0.35-4.53,0.96-7.45,3.24c-3.68,2.88-4.94,6.76-5.31,7.32  c-14.08,21.51-42.94,32.09-67.59,24.77c-0.81,6.23-1.62,12.47-2.43,18.7c15.71-6.35,33.2-6.06,50.13-5.68  c4.94,0.11,10.66,0.62,13.43,4.71c0.65,0.96,1.18,2.15,2.26,2.58c0.67,0.27,1.43,0.17,2.15,0.07c5.5-0.83,10.9-2.3,16.06-4.38  c1.58-0.64,3.2-1.37,4.32-2.66c1.3-1.5,1.75-3.52,2.15-5.46c1.46-6.99,2.93-13.99,4.39-20.98c0.42-2,0.86-4.05,2.04-5.72  c1.53-2.16,4.06-3.34,6.48-4.41c11.02-4.85,22.8-9.7,29.95-19.39c0.77-1.04,1.52-2.17,2.65-2.81c1.32-0.74,2.92-0.68,4.43-0.7  c13.77-0.11,26.62-7.7,36.06-17.73s15.97-22.37,22.36-34.57c2.17-4.14,4.34-8.3,5.79-12.75c2.72-8.37,3.56-18.9,2.08-27.61  C708.52,409.06,706.82,403.41,711.55,396.72z"/>
<path class="st8" d="M438.42,459.88c6.4,4.4,12.94,8.86,20.4,11.02c12.07,3.5,25.17,0.52,36.62-4.68c3.16-1.44,6.43-3.08,9.9-2.86  c2.88,0.18,5.5,1.62,8.22,2.55c4.07,1.39,9.12,1.44,12.09-1.66c2.14,1.93,1.54,5.69-0.55,7.67c-2.09,1.98-5.14,2.55-8.02,2.69  c-2.88,0.14-5.82-0.05-8.58,0.75c-3.31,0.96-6.04,3.25-9.02,4.98c-6.3,3.65-13.8,4.78-21.08,4.5c-8.48-0.33-16.87-2.53-24.46-6.33  c-3.57-1.79-8.02-4-10.79-6.94C440.49,468.74,439.38,463.62,438.42,459.88z"/>
<path class="st11" d="M417.02,435.45c3.5,0.39,6.82,2.48,10.32,2.01c4.66-0.63,7.51-5.49,8.64-10.05c1.13-4.56,1.32-9.51,3.84-13.48  c2.02,4.3,3.9,8.67,5.63,13.1c0.41,1.05,0.82,2.17,0.64,3.29c-0.18,1.12-0.93,2.05-1.64,2.94c-8.75,11.04-14.48,24.44-16.44,38.38  c0.47-3.34-8.82-12.01-10.14-16.22C415.93,449.29,417.03,441.77,417.02,435.45z"/>
<path class="st2" d="M329.44,723.02c6.73-1.41,13.47-2.82,20.2-4.23c0.08-0.02,0.18-0.03,0.26,0c0.1,0.05,0.15,0.17,0.18,0.28  c1.23,3.81,2.07,7.75,2.51,11.73c-4.95-0.84-9.9-1.68-14.85-2.52c-1.19-0.2-2.41-0.41-3.48-0.98c-1.07-0.57-1.98-1.57-2.12-2.77"/>
<path class="st8" d="M466.18,657.09c11.42-5.66,20.86-15.21,26.4-26.69c0.75,6.02-0.73,12.08-2.2,17.97  c-2.13,8.54-4.25,17.09-6.38,25.63c-0.09,0.37-7.43,0.19-8.06-0.05c-1.71-0.67-0.47-1.73-1.09-3.45  C473.18,665.83,469.09,661.06,466.18,657.09z"/>
<path class="st8" d="M630.39,406.39c0.61,7.67-0.69,15.53,1.07,23.02c-0.3-1.25,1.07-4.08,1.44-5.33c0.57-1.92,1.09-3.96,1.89-5.8  c1.51-3.48,3.91-6.84,5.82-10.16c0.84-1.46,1.68-2.92,2.63-4.32c2.18-3.22,4.89-6.05,7.46-8.96c0.73-0.83,1.49-1.75,1.52-2.85  c0.04-1.21-0.75-1.91-1.45-2.76c-0.61-0.74-0.95-1.57-1.59-2.29c-11.97-13.6-27.64-22.27-44.93-26.9c-0.89,2.25-1.77,4.69-2.29,7.05  C617.08,375.9,628.92,387.86,630.39,406.39z"/>
<g>
	<path class="st2" d="M532.7,606.38c3.4-0.83,6.89-1.27,10.39-1.33c3.5-0.05,7.02,0.3,10.45,1.08c6.87,1.52,13.34,4.77,18.7,9.26h0   l-6.37,1.9c2.59-6.76,6.64-12.81,11.72-17.66c2.54-2.42,5.32-4.54,8.29-6.31c2.96-1.77,6.09-3.21,9.33-4.27   c0.55-0.18,1.14,0.12,1.33,0.67c0.16,0.5-0.07,1.04-0.53,1.27c-2.9,1.46-5.61,3.23-8.08,5.26c-2.47,2.02-4.68,4.31-6.61,6.78   c-3.85,4.95-6.51,10.69-7.81,16.6c-0.45,2.04-2.47,3.34-4.52,2.89c-0.59-0.13-1.12-0.39-1.56-0.75l-0.29-0.24   c-4.45-3.68-9.73-6.29-15.34-7.5c-2.8-0.61-5.68-0.89-8.56-0.83c-2.88,0.06-5.76,0.45-8.56,1.14l-0.01,0   c-2.2,0.55-4.43-0.79-4.97-2.99s0.79-4.43,2.99-4.97L532.7,606.38z"/>
</g>
<path class="st8" d="M557.03,625.73c2.82-3.72,5.94-7.2,9.34-10.4c-7.18-3.47-15.01-5.93-22.99-5.78c-2.73,0.05-5.51,0.43-7.98,1.61  c-1.38,0.66-6.27,3.95-5.2,6.04c0.73,1.44,6.45,0.53,7.8,0.65C544.95,618.43,551.73,621.19,557.03,625.73z"/>
<path class="st8" d="M505.06,598.63c2.69,5,5.42,10.06,9.3,14.21c3.88,4.15,9.11,7.34,14.78,7.57c-3.47,7.35-6.94,14.7-10.4,22.05  c0.44-0.94-5.94-9.53-6.69-10.86c-2.15-3.78-4.17-7.63-6.06-11.55c-1.47-3.05-3.08-5.76-2.6-9.19  C503.97,606.73,505,602.85,505.06,598.63z"/>
<path class="st8" d="M455.99,706.68c1.06-1.47,2.69-2.48,4.42-2.99c1.74-0.52,3.58-0.59,5.39-0.45c0.94,0.07,1.89,0.2,2.75,0.59  c0.78,0.35,1.46,0.89,2.12,1.43c1.38,1.11,2.76,2.22,4.14,3.33c0.84,0.68,1.69,1.36,2.62,1.9c2.18,1.27,4.75,1.74,7.27,1.8  c1.13,0.03,2.41-0.09,3.11-0.98c0.3-0.38,0.45-0.85,0.6-1.31c0.36-1.13,0.72-2.25,1.07-3.38c0.16-0.52,0.34-1.06,0.73-1.43  c0.63-0.62,1.63-0.63,2.51-0.54c2.23,0.25,4.44,0.99,6.18,2.4c1.74,1.41,2.97,3.53,3.04,5.77c0.02,0.73-0.09,1.48-0.47,2.1  c-0.66,1.05-1.98,1.47-3.2,1.69c-1.47,0.26-2.99,0.35-4.47,0.11c-1.83-0.3-3.54-1.09-5.32-1.64c-5.54-1.7-11.52-0.92-17.22,0.14  c-1.85,0.34-3.71,0.71-5.58,0.56c-1.29-0.1-2.55-0.46-3.73-0.99c-1.34-0.61-2.6-1.46-3.48-2.64c-0.89-1.18-1.37-2.69-1.13-4.14"/>
<path class="st13" d="M506.18,278.42c0.48,2.8-0.91,5.6-0.86,8.44c0.07,3.78,2.73,7.13,5.98,9.06s7.03,2.71,10.74,3.45  c3.93,0.79,7.87,1.58,11.8,2.37c-5.07,0.93-10.15,1.86-15.22,2.79c-1.86,0.34-3.78,0.68-5.61,0.23c-1.64-0.4-3.05-1.41-4.45-2.35  c-4.95-3.34-10.48-5.53-15.5-8.6c1.66-2.63,4.39-3.52,6.63-5.44C502.59,285.9,504.28,281.65,506.18,278.42z"/>
<path class="st2" d="M665.09,381.98c3.54-3.02,7.08-6.05,10.62-9.07c2.66-2.27,5.72-3.63,5.69-7.65c0-0.49-0.06-0.98-0.25-1.43  c-0.21-0.5-0.57-0.92-0.92-1.33c-1.77-2.06-3.54-4.12-5.31-6.18c-1.18-1.37-3.13-4.8-4.77-5.49c-4.02-1.69-1.05,3.9-0.87,5.53  c0.28,2.57-0.23,5.24-1.6,7.45c-1.96,3.16-5.28,5.18-8.25,7.42c-2.16,1.63-4.22,3.45-5.81,5.64c-0.88,1.2-1.64,2.54-2.84,3.42  c-2.02,1.47-4.61,0.87-9.03-0.21c-3.39-0.83-7.36-1.87-11.78-3.18c1.86,1.34,4.94,3.93,7.29,8.19c2.02,3.67,2.58,6.93,2.73,7.89  c0.72,4.73-0.39,8.03-4.86,21.72c-1.07,3.28-2.09,6.41-2.64,8.1c6.68-14.11,13.86-22.84,18.84-27.96  C660.31,385.62,665.09,381.98,665.09,381.98z"/>
</svg>